<?xml version="1.0" encoding="UTF-8"?>
<svg data-bbox="352.79 63.58 3941.69 2823.23" viewBox="0 0 4680 3120" xmlns="http://www.w3.org/2000/svg" data-type="ugc">
    <g>
        <defs>
            <linearGradient gradientUnits="userSpaceOnUse" y2="444.14" x2="2440.85" y1="2073.33" x1="2319.67" id="2771b87e-c958-4aa5-985e-bb85c34bcad7">
                <stop stop-color="#7318bd" offset="0"/>
                <stop stop-color="#201350" offset="1"/>
            </linearGradient>
            <linearGradient gradientUnits="userSpaceOnUse" y2="1378.4" x2="3033.17" y1="750.2" x1="3501.87" id="78f91007-fe6b-42ec-b11a-0e1f0296b94e">
                <stop stop-color="#54138e" offset=".07"/>
                <stop stop-color="#601290" offset=".18"/>
                <stop stop-color="#810e96" offset=".38"/>
                <stop stop-color="#b608a0" offset=".65"/>
                <stop stop-color="#fd00ad" offset=".96"/>
            </linearGradient>
            <linearGradient gradientUnits="userSpaceOnUse" gradientTransform="rotate(45 1267.642 1473.365)" y2="1583.87" x2="1069.13" y1="1447.6" x1="1313.92" id="df80b0ec-29fe-4a98-8112-8a3b27d95d18">
                <stop stop-color="#b322ef" offset=".04"/>
                <stop stop-color="#261886" offset=".84"/>
            </linearGradient>
            <clipPath id="fa89e15b-8d51-4a71-9472-76c6082216d2">
                <path d="M3145 2598.49c-474.41-2.52-1134.87 5.16-1603.15 12-458.55 6.7-829.89-372.28-812.07-830.53q1.53-39.54 4.66-81.29c39-518.9 434.66-1212.81 1249.41-1329 546.62-77.93 520.88 335.77 1121.09 433.7 447.06 73 760.19 430.45 834.28 861.47 84.17 489.97-297.16 936.3-794.22 933.65Z"/>
            </clipPath>
        </defs>
        <g>
            <path d="M3104.9 803.41c-600.21-97.93-574.47-511.63-1121.09-433.7-814.75 116.16-1210.37 810.07-1249.41 1329q-3.15 41.76-4.66 81.29c-17.82 458.25 353.52 837.23 812.07 830.53 468.27-6.85 1128.74-14.53 1603.15-12 497.1 2.65 878.43-443.68 794.22-933.61-74.09-431.06-387.18-788.55-834.28-861.51Z" fill="url(#2771b87e-c958-4aa5-985e-bb85c34bcad7)"/>
            <g clip-path="url(#fa89e15b-8d51-4a71-9472-76c6082216d2)">
                <path fill="#ffffff" d="M4294.48 259.96v3.48H352.79v-3.48h3941.69z" opacity=".2"/>
                <path fill="#ffffff" d="M4294.48 502.66v3.48H352.79v-3.48h3941.69z" opacity=".2"/>
                <path fill="#ffffff" d="M4294.48 745.36v3.48H352.79v-3.48h3941.69z" opacity=".2"/>
                <path fill="#ffffff" d="M4294.48 988.06v3.48H352.79v-3.48h3941.69z" opacity=".2"/>
                <path fill="#ffffff" d="M4294.48 1230.75v3.48H352.79v-3.48h3941.69z" opacity=".2"/>
                <path fill="#ffffff" d="M4294.48 1473.45v3.48H352.79v-3.48h3941.69z" opacity=".2"/>
                <path fill="#ffffff" d="M4294.48 1716.15v3.48H352.79v-3.48h3941.69z" opacity=".2"/>
                <path fill="#ffffff" d="M4294.48 1958.85v3.48H352.79v-3.48h3941.69z" opacity=".2"/>
                <path fill="#ffffff" d="M4294.48 2201.55v3.48H352.79v-3.48h3941.69z" opacity=".2"/>
                <path fill="#ffffff" d="M4294.48 2444.25v3.48H352.79v-3.48h3941.69z" opacity=".2"/>
                <path fill="#ffffff" d="M4294.48 2686.95v3.48H352.79v-3.48h3941.69z" opacity=".2"/>
                <path fill="#ffffff" d="M611.16 63.58v2823.23h-3.47V63.58h3.47z" opacity=".2"/>
                <path fill="#ffffff" d="M853.86 63.58v2823.23h-3.47V63.58h3.47z" opacity=".2"/>
                <path fill="#ffffff" d="M1096.56 63.58v2823.23h-3.47V63.58h3.47z" opacity=".2"/>
                <path fill="#ffffff" d="M1339.26 63.58v2823.23h-3.47V63.58h3.47z" opacity=".2"/>
                <path fill="#ffffff" d="M1581.95 63.58v2823.23h-3.47V63.58h3.47z" opacity=".2"/>
                <path fill="#ffffff" d="M1824.65 63.58v2823.23h-3.47V63.58h3.47z" opacity=".2"/>
                <path fill="#ffffff" d="M2067.35 63.58v2823.23h-3.47V63.58h3.47z" opacity=".2"/>
                <g opacity=".2">
                    <path d="M2310.05 2886.8V74.44h-3.47V2886.8Z" fill="#ffffff"/>
                    <path d="M2310.05 74.44V63.58h-3.47v10.86Z" fill="#ffffff"/>
                </g>
                <g opacity=".2">
                    <path d="M2552.75 63.58h-3.47v10.21h3.47Z" fill="#ffffff"/>
                    <path d="M2552.75 2886.8V73.79h-3.47v2813Z" fill="#ffffff"/>
                </g>
                <g opacity=".2">
                    <path d="M2795.45 63.58H2792V77l3.47.11Z" fill="#ffffff"/>
                    <path d="M2795.45 2886.8V77.09L2792 77v2809.8Z" fill="#ffffff"/>
                </g>
                <g opacity=".2">
                    <path d="M3038.15 2886.8V92.36l-3.47-.34V2886.8Z" fill="#ffffff"/>
                    <path d="M3038.15 63.58h-3.47V92l3.47.34Z" fill="#ffffff"/>
                </g>
                <g opacity=".2">
                    <path d="M3280.85 63.58h-3.48v31.66h3.48Z" fill="#ffffff"/>
                    <path d="M3280.85 2886.8V95.24h-3.48V2886.8Z" fill="#ffffff"/>
                </g>
                <g opacity=".2">
                    <path d="M3523.55 63.58h-3.48v31.84h3.48Z" fill="#ffffff"/>
                    <path d="M3523.55 2886.8V95.42h-3.48V2886.8Z" fill="#ffffff"/>
                </g>
                <g opacity=".2">
                    <path d="M3766.25 63.58h-3.48v32.1h3.48Z" fill="#ffffff"/>
                    <path d="M3766.25 2886.8V95.68h-3.48V2886.8Z" fill="#ffffff"/>
                </g>
                <g opacity=".2">
                    <path d="M4008.94 63.58h-3.47V96h3.47Z" fill="#ffffff"/>
                    <path d="M4008.94 2886.8V96h-3.47v2790.8Z" fill="#ffffff"/>
                </g>
            </g>
            <path d="M2107 782.87a10 10 0 0 0-10 10v474.85a10 10 0 1 0 20.09 0v-474.8a10.05 10.05 0 0 0-10.09-10.05Z" fill="#cf18d4"/>
            <path d="M2107 1513.52a10 10 0 0 0-10 10v474.86a10 10 0 1 0 20.09 0v-474.82a10 10 0 0 0-10.09-10.04Z" fill="#cf18d4"/>
            <path d="M1943.92 651.19a10 10 0 0 0-10.05 10v474.86a10.05 10.05 0 0 0 20.1 0V661.23a10 10 0 0 0-10.05-10.04Z" fill="#cf18d4"/>
            <path d="M1775.69 915.08a10 10 0 0 0-10 10V1400a10 10 0 0 0 20.09 0V925.12a10 10 0 0 0-10.09-10.04Z" fill="#cf18d4"/>
            <path d="M1657.63 1886.76a10 10 0 0 0-10 10v474.86a10 10 0 0 0 20.09 0V1896.8a10 10 0 0 0-10.09-10.04Z" fill="#cf18d4"/>
            <path d="M1657.63 1651.06a10 10 0 0 0-10 10v56a10 10 0 1 0 20.09 0v-56a10 10 0 0 0-10.09-10Z" fill="#cf18d4"/>
            <path d="M1799.67 1848.69a10.05 10.05 0 0 0-10.05 10v56a10.05 10.05 0 0 0 20.1 0v-56a10.05 10.05 0 0 0-10.05-10Z" fill="#cf18d4"/>
            <path d="M1943.92 1453.84a10.05 10.05 0 0 0-10.05 10.05v56a10.05 10.05 0 1 0 20.1 0v-56a10.05 10.05 0 0 0-10.05-10.05Z" fill="#cf18d4"/>
            <path d="M2205.06 973.7a10.05 10.05 0 0 0-10 10v56a10 10 0 0 0 20.09 0v-56a10 10 0 0 0-10.09-10Z" fill="#cf18d4"/>
            <path d="M1943.92 1693.15a10 10 0 0 0-10.05 10v56a10.05 10.05 0 1 0 20.1 0v-56a10 10 0 0 0-10.05-10Z" fill="#cf18d4"/>
            <path d="M1809.72 2231.45a10 10 0 0 0-10 10v56a10 10 0 1 0 20.09 0v-56a10 10 0 0 0-10.09-10Z" fill="#cf18d4"/>
            <path d="M1657.63 765.24a10 10 0 0 0-10 10v474.86a10 10 0 0 0 20.09 0V775.28a10 10 0 0 0-10.09-10.04Z" fill="#cf18d4"/>
            <path d="M2205.06 1924a10.05 10.05 0 0 0-10 10v474.86a10 10 0 0 0 20.09 0v-474.78a10 10 0 0 0-10.09-10.08Z" fill="#cf18d4"/>
            <path d="M1943.92 2022a10.05 10.05 0 0 0-10.05 10v474.85a10.05 10.05 0 1 0 20.1 0v-474.76a10.05 10.05 0 0 0-10.05-10.09Z" fill="#cf18d4"/>
            <g opacity=".7">
                <path d="M2107 782.87a10 10 0 0 0-10 10v474.85a10 10 0 1 0 20.09 0v-474.8a10.05 10.05 0 0 0-10.09-10.05Z" fill="#cf18d4"/>
                <path d="M2107 1513.52a10 10 0 0 0-10 10v474.86a10 10 0 1 0 20.09 0v-474.82a10 10 0 0 0-10.09-10.04Z" fill="#cf18d4"/>
                <path d="M1943.92 651.19a10 10 0 0 0-10.05 10v474.86a10.05 10.05 0 0 0 20.1 0V661.23a10 10 0 0 0-10.05-10.04Z" fill="#cf18d4"/>
                <path d="M1775.69 915.08a10 10 0 0 0-10 10V1400a10 10 0 0 0 20.09 0V925.12a10 10 0 0 0-10.09-10.04Z" fill="#cf18d4"/>
                <path d="M1657.63 1886.76a10 10 0 0 0-10 10v474.86a10 10 0 0 0 20.09 0V1896.8a10 10 0 0 0-10.09-10.04Z" fill="#cf18d4"/>
                <path d="M1657.63 1651.06a10 10 0 0 0-10 10v56a10 10 0 1 0 20.09 0v-56a10 10 0 0 0-10.09-10Z" fill="#cf18d4"/>
                <path d="M1799.67 1848.69a10.05 10.05 0 0 0-10.05 10v56a10.05 10.05 0 0 0 20.1 0v-56a10.05 10.05 0 0 0-10.05-10Z" fill="#cf18d4"/>
                <path d="M1943.92 1453.84a10.05 10.05 0 0 0-10.05 10.05v56a10.05 10.05 0 1 0 20.1 0v-56a10.05 10.05 0 0 0-10.05-10.05Z" fill="#cf18d4"/>
                <path d="M2205.06 973.7a10.05 10.05 0 0 0-10 10v56a10 10 0 0 0 20.09 0v-56a10 10 0 0 0-10.09-10Z" fill="#cf18d4"/>
                <path d="M1943.92 1693.15a10 10 0 0 0-10.05 10v56a10.05 10.05 0 1 0 20.1 0v-56a10 10 0 0 0-10.05-10Z" fill="#cf18d4"/>
                <path d="M1809.72 2231.45a10 10 0 0 0-10 10v56a10 10 0 1 0 20.09 0v-56a10 10 0 0 0-10.09-10Z" fill="#cf18d4"/>
                <path d="M1657.63 765.24a10 10 0 0 0-10 10v474.86a10 10 0 0 0 20.09 0V775.28a10 10 0 0 0-10.09-10.04Z" fill="#cf18d4"/>
                <path d="M2205.06 1924a10.05 10.05 0 0 0-10 10v474.86a10 10 0 0 0 20.09 0v-474.78a10 10 0 0 0-10.09-10.08Z" fill="#cf18d4"/>
                <path d="M1943.92 2022a10.05 10.05 0 0 0-10.05 10v474.85a10.05 10.05 0 1 0 20.1 0v-474.76a10.05 10.05 0 0 0-10.05-10.09Z" fill="#cf18d4"/>
            </g>
            <path d="M1931.35 2500.52a11.73 11.73 0 0 0-11.73 11.73v25.83a11.73 11.73 0 1 0 23.45 0v-25.83a11.73 11.73 0 0 0-11.72-11.73Z" fill="#cf18d4"/>
            <path d="M2887.57 1130.52a10.05 10.05 0 0 0-10.05 10v474.85a10 10 0 1 0 20.1 0v-474.8a10.05 10.05 0 0 0-10.05-10.05Z" fill="#cf18d4"/>
            <path d="M2887.57 1861.17a10 10 0 0 0-10.05 10v474.86a10.05 10.05 0 0 0 20.1 0v-474.82a10 10 0 0 0-10.05-10.04Z" fill="#cf18d4"/>
            <path d="M2724.48 998.84a10 10 0 0 0-10.05 10v474.86a10 10 0 0 0 20.09 0v-474.82a10 10 0 0 0-10.04-10.04Z" fill="#cf18d4"/>
            <path d="M2556.24 1262.73a10 10 0 0 0-10 10v474.86a10 10 0 0 0 20.09 0v-474.82a10 10 0 0 0-10.09-10.04Z" fill="#cf18d4"/>
            <path d="M2438.19 1998.71a10 10 0 0 0-10.05 10v56a10 10 0 1 0 20.09 0v-56a10 10 0 0 0-10.04-10Z" fill="#cf18d4"/>
            <path d="M2580.22 2196.34a10 10 0 0 0-10 10v56a10 10 0 1 0 20.09 0v-56a10.05 10.05 0 0 0-10.09-10Z" fill="#cf18d4"/>
            <path d="M2724.48 1801.49a10.05 10.05 0 0 0-10.05 10v56a10 10 0 1 0 20.09 0v-56a10 10 0 0 0-10.04-10Z" fill="#cf18d4"/>
            <path d="M2985.61 1321.35a10 10 0 0 0-10 10.05v56a10 10 0 0 0 20.09 0v-56a10.05 10.05 0 0 0-10.09-10.05Z" fill="#cf18d4"/>
            <path d="M2724.48 2040.79a10.05 10.05 0 0 0-10.05 10.05v56a10 10 0 1 0 20.09 0v-56a10 10 0 0 0-10.04-10.05Z" fill="#cf18d4"/>
            <path d="M2438.19 1112.89a10 10 0 0 0-10.05 10v474.86a10 10 0 0 0 20.09 0v-474.82a10 10 0 0 0-10.04-10.04Z" fill="#cf18d4"/>
            <g opacity=".7">
                <path d="M2887.57 1130.52a10.05 10.05 0 0 0-10.05 10v474.85a10 10 0 1 0 20.1 0v-474.8a10.05 10.05 0 0 0-10.05-10.05Z" fill="#cf18d4"/>
                <path d="M2887.57 1861.17a10 10 0 0 0-10.05 10v474.86a10.05 10.05 0 0 0 20.1 0v-474.82a10 10 0 0 0-10.05-10.04Z" fill="#cf18d4"/>
                <path d="M2724.48 998.84a10 10 0 0 0-10.05 10v474.86a10 10 0 0 0 20.09 0v-474.82a10 10 0 0 0-10.04-10.04Z" fill="#cf18d4"/>
                <path d="M2556.24 1262.73a10 10 0 0 0-10 10v474.86a10 10 0 0 0 20.09 0v-474.82a10 10 0 0 0-10.09-10.04Z" fill="#cf18d4"/>
                <path d="M2438.19 1998.71a10 10 0 0 0-10.05 10v56a10 10 0 1 0 20.09 0v-56a10 10 0 0 0-10.04-10Z" fill="#cf18d4"/>
                <path d="M2580.22 2196.34a10 10 0 0 0-10 10v56a10 10 0 1 0 20.09 0v-56a10.05 10.05 0 0 0-10.09-10Z" fill="#cf18d4"/>
                <path d="M2724.48 1801.49a10.05 10.05 0 0 0-10.05 10v56a10 10 0 1 0 20.09 0v-56a10 10 0 0 0-10.04-10Z" fill="#cf18d4"/>
                <path d="M2985.61 1321.35a10 10 0 0 0-10 10.05v56a10 10 0 0 0 20.09 0v-56a10.05 10.05 0 0 0-10.09-10.05Z" fill="#cf18d4"/>
                <path d="M2724.48 2040.79a10.05 10.05 0 0 0-10.05 10.05v56a10 10 0 1 0 20.09 0v-56a10 10 0 0 0-10.04-10.05Z" fill="#cf18d4"/>
                <path d="M2438.19 1112.89a10 10 0 0 0-10.05 10v474.86a10 10 0 0 0 20.09 0v-474.82a10 10 0 0 0-10.04-10.04Z" fill="#cf18d4"/>
            </g>
            <path d="M3707.05 2041.54c-65.84-12.64-137.43 10.28-183.69 58.81-34 35.7-59.36 91-54.23 141.25s43.15 66.52 88 51.89c32.79-10.69 64.14-26.39 91.6-47.34 49.93-38.08 86.79-95.06 93.88-157.45 1.2-10.58 1.35-22.08-4.57-30.94-6.64-9.96-19.21-13.96-30.99-16.22Z" fill="#b318ef"/>
            <path d="M3736.43 2055.56c-2.44 1.79-174.8 129.46-308 279.78l4.4 3.25c132.66-149.59 304.43-276.82 306.86-278.59a2.75 2.75 0 1 0-3.26-4.42Z" fill="#c834ff"/>
            <path d="M3773.9 1680.45c-10.46-9.49-26-10.48-40.08-9.7-78.86 4.34-154.14 51-193.17 119.63-28.7 50.51-41.87 121-21.68 176.92s68.3 63.71 115.42 34.19c34.43-21.57 65.78-48.47 91.19-80.25 46.2-57.77 72.07-133.41 62.37-206.74-1.64-12.44-4.76-25.63-14.05-34.05Z" fill="#b318ef"/>
            <path d="M3771.83 1675.38a2.74 2.74 0 0 0-3.82.68c-3 4.29-235 339.68-390.63 622.71l4.52 3.16c155.48-282.79 387.66-618.44 390.62-622.73a2.73 2.73 0 0 0-.69-3.82Z" fill="#c834ff"/>
            <path d="M1117.68 1897.35c-38.28-63.3-100.35-113.68-172.52-129.88-12.24-2.75-25.7-4.38-36.81 1.44-12.52 6.55-18.8 20.76-22.93 34.27-23.14 75.52-5.35 162.26 45.63 222.58 37.51 44.38 99.11 81 158.57 81.4s83.37-42.12 71.92-96.54c-8.37-39.76-22.8-78.46-43.86-113.27Z" fill="#c834ff"/>
            <path d="M910.51 1767.22a2.75 2.75 0 0 0-4.33 3.38c3.92 5 391.9 503.11 452.34 689.87a2.75 2.75 0 0 0 5.23-1.7c-60.75-187.66-449.32-686.53-453.24-691.55Z" fill="#b318ef"/>
            <path d="M1324.12 1774c-13.95-2.22-27.48 5.43-38.86 13.79-63.67 46.74-101.23 126.93-96.37 205.76 3.56 58 31.06 124.2 78.54 160s92 16 115.34-34.45c17-36.89 28.59-76.54 32.5-117 7.11-73.63-12.57-151.11-60.77-207.22-8.18-9.55-17.99-18.88-30.38-20.88Z" fill="#b318ef"/>
            <path d="M1326.82 1774.53a2.75 2.75 0 1 0-5.4-1c-.72 3.81-71.32 384.62 37.13 687.05a2.75 2.75 0 0 0 5.17-1.86c-107.93-301.03-37.63-680.4-36.9-684.19Z" fill="#c834ff"/>
            <path d="M1084.51 2076.75c-60.9-42-138.18-62.45-210.64-47.58-12.29 2.52-25.23 6.56-33 16.43-8.73 11.11-8.61 26.65-6.84 40.66 9.92 78.36 61.75 150.15 133 184.22 52.42 25.05 123.65 33.19 178 9.1s58.77-72.64 25.97-117.58c-23.94-32.79-53-62.15-86.49-85.25Z" fill="#b318ef"/>
            <path d="M842 2043.08a2.76 2.76 0 0 0-3.62 1.41 2.73 2.73 0 0 0 1.4 3.62c4.63 2 463.9 206.59 518.2 410.85a2.73 2.73 0 0 0 1.79 1.91 2.7 2.7 0 0 0 1.57 0 2.73 2.73 0 0 0 2-3.35c-55.01-206.76-516.68-412.38-521.34-414.44Z" fill="#c834ff"/>
            <path fill="#440063" d="m1248.81 2289.89-347.74 341.76h2877.86l-347.74-341.76H1248.81z"/>
            <path d="m2340.18 2306.22-818.84 134.3s26.82 177 316.48 147.51 565.9-101.91 649-67.05 681.23 118 595.41-56.32-742.05-158.44-742.05-158.44Z" fill="#2f0051"/>
            <path d="m1849.31 2425.27-159.65-135.38h-16.53l163.64 138.77c-119.14 49.72-256.68-24-367.61 66.07-2.23 1.81-2.64 5.08-1.62 8.05 10.88 31.63 32.86 50.44 56.63 63.48 34.43 18.9 71.43 31 107 45.51l48.66 19.88H1710l-59.7-24.4c-34.64-14.15-69.57-27.46-103.95-42.64-27.12-12-55.17-28.31-69-62.48 111.88-86.76 251.91-9.52 370.88-66.1 3.66-1.74 4.46-7.89 1.08-10.76Z" fill="#74007e"/>
            <path d="M2164.4 2603.11c-48.59-18.68-98.72-32-147.91-47.67L1862 2506.08c32.19-57.86 88.56-71.91 139.93-82.29 53.63-10.84 110.46-18.12 156.78-58.44 2.85-2.48 3-7.72 0-10.16a565.88 565.88 0 0 0-97.72-65.3h-25.44a551.76 551.76 0 0 1 112.31 70.4c-48.81 38.63-108.2 43.12-163.29 55.29-51.45 11.37-104.07 30.77-134 91.19-1.56 3.14 0 7.77 2.69 8.65 101.43 32.4 204.12 61 304.73 97.56 12 4.38 24.79 9.79 35.58 18.67h13.55c-11.26-13.28-25.91-22.08-42.72-28.54Z" fill="#74007e"/>
            <path d="M1274.49 2334.24c-30 7.55-60.64 13.07-91 19.86l-16.35 16.07q5-1.23 10-2.41c64.93-15.27 132.65-22.85 193.81-57.38a222.25 222.25 0 0 0 30-20.49h-19c-33.08 22.36-70.46 35.05-107.46 44.35Z" fill="#74007e"/>
            <path d="M1205.78 2472.43c-50.26 8.86-105.37 24.19-156.58 13.63l-9.6 9.44c46.9 12 97.1 1.66 144.07-7.2 63.13-11.91 137.86-28.37 189.83 30.85l-124.17 65.49c-29.93 15.79-61.2 29.72-90.92 47H1184c2.55-1.3 5.09-2.6 7.61-3.93l60.15-31.73 131.24-69.2a6.79 6.79 0 0 0 2-9.84c-48.41-61.66-117.2-55.45-179.22-44.51Z" fill="#74007e"/>
            <path d="M3515.82 2441.36c-26.25 16.36-56.67 14.2-83.63 27.77-28.79 14.5-61 68.53-33.31 105.45 16.7 22.31 45.27 35.43 66.62 48.2 5.1 3 10.23 6 15.38 8.87h23.46a656.47 656.47 0 0 1-75.59-45.82c-11-7.72-24.62-15.28-29.33-31.55-5-17.43 1.62-36.63 10.18-50.12 31.27-49.22 91-26.44 127.43-66.86a109.92 109.92 0 0 0 17.27-26.42l-7.3-7.18c-7.5 16.01-18 29.43-31.18 37.66Z" fill="#74007e"/>
            <path d="M2252 2469.21c65.51-69.48 161.4-40.85 239.37-48.1 26.58-2.47 71.69-8.65 77.6-52 3.52-25.8-13.34-48.49-23.77-67.68l-6.26-11.53h-11q2.3 4.21 4.58 8.44c12.25 22.54 40.56 59.41 20.37 86.13-14 18.52-36.12 22-54.9 24.2-18.61 2.17-37.33 2.43-56 2.3-69.21-.49-147.19-8.92-202.29 56.58-2.59 3.09-1.1 8.6 2 9.84l276.22 110.86L2582 2614c14.27 5.73 29.71 10.35 44 17.66h22.42c-19.75-15.26-46.74-22.06-64.05-29Z" fill="#74007e"/>
            <path d="M3230.56 2392.69c46.6-22.29 84-66.19 124.14-102.8h-15.88c-34.22 32.42-66.57 68.79-106.28 89.27-51.18 26.41-112.09 5.31-159.44 45.62-2.66 2.27-3.17 8.06 0 10.17L3343.58 2615q12.52 8.34 25.09 16.61h19.67l-303.61-202.11c44.05-31.02 99.13-14.5 145.83-36.81Z" fill="#74007e"/>
            <path d="M3034.82 2554.29c-23.43-6.82-48-8.42-71.83-12.11l-85.16-13.18-161.78-25c48.35-78.15 126.45-108.16 197.89-134.16 3.9-1.42 4.22-8 1.08-10.76a648.21 648.21 0 0 0-94.6-69.13h-22.49a632 632 0 0 1 104.08 72c-73.6 27.1-150.94 60.44-198.4 143.6a6.16 6.16 0 0 0 3.89 8.86l161.52 25c52.86 8.19 107.36 12.19 159.64 25.22 18 4.5 45.24 15.4 45.92 44.6a51.37 51.37 0 0 1-4.89 22.43h9.68a65 65 0 0 0 3.53-13.29c5.6-37.97-24.55-57.24-48.08-64.08Z" fill="#74007e"/>
            <path d="M2881.36 1687.12c-30.59-77.93-202.93-340.43-202.93-340.43s-43.08-87.06-156.82-109.22c-22.43 63.81-9.11 217.67 10.33 283.25 26 87.62 103.82 172.76 162 226.89 38.82 36.11 68.87 58.41 68.87 58.41s16.22 66.17 50.51 143.7c27 4.72 54.36 4.69 74.21-6.68 32-18.31 36.44-55.9 38.92-85.57a150.56 150.56 0 0 0-.75-28c-11-42.1-23.27-88.7-44.34-142.35Z" fill="#fad3ba"/>
            <path d="M1910.79 1397.36c-35.49 78.57-145 289.74-145 289.74-.31 1.09-13.38 46.4-38.82 108.71-4.57 22-7.7 44.39-6.26 61.62 2.49 29.67 7 67.26 38.93 85.57 28.15 16.12 71.42 9.45 107.22-1.25 30.45-46.78 48-80.69 48-80.69s20.67-32.38 47.61-81c35.23-63.53 81.19-154.77 105.73-237.55 19.42-65.58 32.75-219.44 10.32-283.25-99.21 31.02-127.47 48.96-167.73 138.1Z" fill="#fad3ba"/>
            <path d="m1948.24 1704 62.89-18.61 36.92-84.17s-10-65.78 5.71-123.33Z" fill="#ffb08d"/>
            <path d="M3099.8 2204.28c-62.84-40.29-131.25-71-199.38-101.49l-275.62-123.5c-76.48 93.2-154.07 181.26-230.54 274.46 2.92-3.56 261.21 141.61 286.17 154.17 79.13 39.82 164 87.48 253.48 101.77 61.66 9.85 125.26.06 178.53-34.15 38.64-24.82 69.32-63.83 78.27-108.88 14.5-73.04-33.79-125.75-90.91-162.38Z" fill="#ffab37"/>
            <path d="M1774.28 2102.79c-68.12 30.52-136.53 61.2-199.37 101.49-57.12 36.63-105.42 89.34-90.91 162.38 9 45.05 39.63 84.06 78.27 108.88 53.26 34.21 116.86 44 178.53 34.15 89.44-14.29 174.34-62 253.48-101.77 25-12.56 283.25-157.73 286.17-154.17-76.47-93.2-154.06-181.26-230.54-274.46Z" fill="#ffab37"/>
            <path d="m2557.63 1878.92-460.83-.3s-41.78 75.78-57.58 111.65c32.09 114.8 37.52 236.22 20.53 354.2 65.79 6.71 134.83 11.39 200.63 18.1 41.69 4.24 83.55 8.5 125.43 7 79.42-2.78 156.52-26 232.59-49 2.33-24.55 6.28-63.65 6.9-88.3l1.59-64c1.53-61.33 18.63-119.45.4-178-10.94-35.12-67.29-115.39-69.66-111.35Z" fill="#ffab37"/>
            <path d="M2344.2 2188.15c-5.19-6.46-10.44-12.83-15.85-19-17.25-19.59-39.43-36.63-66.9-31.4-23.09 4.41-43.47 17-66.83 21-24.18 4.11-49.11 2.55-73.07-2.27-71.28-14.35-85.89-34.16-161.37-25.62-13.83 1.56-28.19 4.58-38.82 13.56-5.36 4.52-9.47 10.32-13.52 16.06a2.14 2.14 0 0 0-.13.19c-7.08 10-2.85 23.87 8.4 28.75 35.34 15.38 70.43 34.13 104.58 52.39q11.79 6.3 23.41 12.48c43.57 23.06 238 103.22 318.18 120.05 31.57 6.62 65.26 7.78 95 20.38L2457 2290c-50.54-18-80.56-61.79-112.8-101.85Z" fill="#fad3ba"/>
            <path d="M2344.2 2188.15c-85.88 34.55-260.23 49.33-323.51 53.7q11.79 6.3 23.41 12.48c43.57 23.06 238 103.22 318.18 120.05 31.57 6.62 65.26 7.78 95 20.38L2457 2290c-50.54-18-80.56-61.79-112.8-101.85Z" fill="#ffb08d"/>
            <path d="M2412.85 2238.62c-4.59 44.21-10 101.12-7.76 145.5 229 61.89 360.19 98.32 546.82 125 10.61-31.58 30.63-58.33 35.77-91.24a354.39 354.39 0 0 0 1.3-96.77c-189.48-29.85-386.66-52.59-576.13-82.49Z" fill="#ffab37"/>
            <path d="M2727.7 2091c-63-8.52-67.85 8.43-124.92 30.52-29.18 11.29-52.21 20.65-83.79 17.15-29.25-3.25-58-13.46-87.63-6.86-27.55 6.15-43.53 33.79-61.08 55.9-26 32.74-94.78 51.08-134.6 63.82l44.79 137.24c149.54-48.24 235.54-102.56 377.67-169.55l95.63-45.08c13.6-6.41 28.09-13.64 35.19-26.89 17.89-33.35-37.96-53.06-61.26-56.25Z" fill="#fad3ba"/>
            <path d="M2165.9 2259.07c-159.12 24-297.92 41.38-463.78 67.54a354.39 354.39 0 0 0 1.31 96.77c5.13 32.92-63.53 54.89-52.92 86.47 156.75 19.26 410.35 34.42 586-6.79a519.32 519.32 0 0 0 71.06-21.69l-72.29-233c-23.67 3.74-46.73 7.28-69.38 10.7Z" fill="#ffab37"/>
            <path d="M2437.29 1205.35c-21.65-8.49-36.45-29.26-35.9-52.51.27-11.35.59-22.3 1.42-33.48-55.15-5-90.31-2.21-145.4 3.32 0 0 .68 57.69-37.36 79.25-50.9 28.85-153.25 48.37-212.44 91.57-1.41 90.6 37 153.65 56.73 258.62 6.5 34.59 2 103.37 14.85 136.15 0 0 16.57 108.25 21.21 186.73 3.6-2.4 459.66 3.92 459.66 3.92-1.69-61.22 1.22-116 1.82-180.33 10-67.64 24.13-138.46 27-198.84s16.62-200.29 12.45-232.85c-48.56-20.1-114.05-41.9-164.04-61.55Z" fill="#fad3ba"/>
            <path d="M2521.35 1232.9c-11.06-4.92-19.36-7.15-29.17-10.86a7.69 7.69 0 0 0-10.38 6c-7.16 48.79-34.48 166.54-158.46 169-.32 0-.64-.28-1-.28-42.19 0-97.94-14.55-125.27-63-19.5-34.61-29.41-64.43-34.77-102.75a5.58 5.58 0 0 0-7.6-4.45c-9 3.55-16.56 5.65-25.65 9.28a9.31 9.31 0 0 0-5.73 8.91c1.89 83.91-29.11 157.6-69.38 232.21-29.51 54.68-1.82 159.37 21.86 205.83l16.7 156.14 4.24 39.67s177.13 35.32 236.49 35.36c56.46 0 226.79-35.06 226.79-35.06s4.85-129.63 10.31-204.31c35.53-109.29 19.27-169.4 1.37-203.71-39.92-76.51-54.26-151.72-50.35-237.98Z" fill="#0197d4"/>
            <path d="M2468.66 1856.67c-55.32 12.67-260.44 34-376.11-17.72l4.24 39.67s177.13 35.32 236.49 35.36c56.46 0 226.79-35.06 226.79-35.06s4.85-129.63 10.31-204.31c0 0-42.99 168.6-101.72 182.06Z" fill="#0069b6"/>
            <path d="M2611.14 940.57c-7.76 2.12-16.08 4.39-23.67 1.73-7.95-2.8-13.1-10.33-17.64-17.42q-34.11-53.26-64.78-108.63c-7.75-14-15.83-28.66-29.12-37.59-10.74-7.22-23.86-9.95-36.73-11.3-63.65-6.69-129.87 18.61-172.85 66l29.67 51a1568.33 1568.33 0 0 1 2 317.64c61.89 23.52 136.45 9.38 185.43-35.16 14.28-13 27.94-29.06 47-32.24 20.62-3.45 41.62 9.6 62 5.09 48.09-10.61 44-100.2 92.93-106a128.16 128.16 0 0 0-58-44.39c17.38-10.92 37.9 7.68 57.9 12.28 26.78 6.17 55.55-20.15 51.77-47.38-32.22-30.2-83.29-25.29-125.91-13.63Z" fill="#863c3e"/>
            <path d="M2398.71 637.53c-6.32-5.7-13.46-10.74-21.6-13.25-26.92-8.31-55.6 15.11-62.41 42.45s2.48 56 14.09 81.71c5.21 11.56 12.73 24.26 25.21 26.18l15.36 7.67c30.73-3.73 55.93-30.95 60.89-61.5s-8.57-62.52-31.54-83.26Z" fill="#863c3e"/>
            <path d="M2379 653c-6-4.21-12.74-7.93-20.09-8.77-6.63-.76-13.64 1.71-17.57 7.26a13.78 13.78 0 0 0-2 4.31c-.78 2.87 3.67 4.1 4.46 1.23 1.49-5.47 7.37-8.35 12.71-8.33 6.82 0 13.25 3.63 18.77 7.33a73.46 73.46 0 0 1 23.91 27.05 70.26 70.26 0 0 1-1.61 69 73.06 73.06 0 0 1-28.72 27.94c-2.63 1.39-.3 5.38 2.33 4a78.55 78.55 0 0 0 40.72-62.89 76.07 76.07 0 0 0-7.72-38.38A78.39 78.39 0 0 0 2379 653Z" fill="#3e1c1a"/>
            <path d="M2561.09 1035.2a110.88 110.88 0 0 1-59-54.27c-13.35-27.48-15.2-58.7-25.12-87.33a117.92 117.92 0 0 0-19.46-36 116.14 116.14 0 0 0-28.38-25c-21.5-13.55-47.57-20.45-73-18-3.11.3-6.22.74-9.3 1.31a2.31 2.31 0 1 0 1.23 4.45c24.55-4.52 50.35.46 72.16 12.34a114.07 114.07 0 0 1 29.3 22.74 106.25 106.25 0 0 1 20.48 32.72c11.2 28 13.06 58.76 24.36 86.73 10.48 25.94 29.94 47.69 55.08 60.19 11.77 5.85 24.45 9.49 36.79 13.9 11.5 4.11 23.21 9 32.29 17.39a48.91 48.91 0 0 1 6 6.56 2.38 2.38 0 0 0 3.16.82 2.32 2.32 0 0 0 .83-3.16c-16.08-21.36-43.97-26.09-67.42-35.39Z" fill="#3e1c1a"/>
            <path d="M2648.6 955.48c-30.95 4.41-67.4 9.85-91.89-14.45-10.3-10.22-17-23.39-23.21-36.34-6.38-13.3-12.33-26.87-20.91-39-16.38-23.07-39.78-40.51-66-50.89s-55.34-13.49-83-7.76q-5.21 1.08-10.31 2.59c-2.84.83-1.63 5.29 1.23 4.45 26.88-7.89 55.81-6.62 82.33 2.1s50.46 24.79 67.81 46.6c9 11.34 15.4 24.26 21.57 37.3s12.36 26.39 21.47 37.77a67 67 0 0 0 37.41 23.7c16 3.72 32.71 2.52 48.85.5 15.57-1.94 31-4.72 46.75-4.69 14.5 0 29.56 2.24 42.05 10.07a50.71 50.71 0 0 1 8.45 6.65c2.14 2.07 5.41-1.19 3.27-3.27-22.57-21.81-57.16-19.43-85.87-15.33Z" fill="#3e1c1a"/>
            <path d="M2378.25 895.58c-2.47 11-17 14-26 9.47-6.15-3.09-10.71-8.44-14.12-14.31a80.84 80.84 0 0 1-8.25-21.39 97.73 97.73 0 0 1-2.66-28c.14-3-4.48-3-4.62 0a102.44 102.44 0 0 0 2.35 27.16 88.19 88.19 0 0 0 8.8 23.85c3.67 6.5 8.69 12.57 15.33 16.19a25.33 25.33 0 0 0 19.19 2.18c6.78-1.94 12.82-6.87 14.41-14 .67-2.82-3.78-4.05-4.43-1.15Z" fill="#3e1c1a"/>
            <path d="m2335.54 772.88-.18-.07c-.55-.21 1.09.5.18.07Z" fill="#863c3e"/>
            <path d="M2328.71 768.83c-.55-.39.79.64 0 0Z" fill="#863c3e"/>
            <path d="M2314.12 748.84a.85.85 0 0 1 0-.16.43.43 0 0 0 0 .16Z" fill="#863c3e"/>
            <path d="m2321.66 761.76-.17-.24a.27.27 0 0 1-.07-.08c-.42-.58.21.27.24.32Z" fill="#863c3e"/>
            <path d="M2347.48 774.65h-.21c-1.07.21 1.09-.07.21 0Z" fill="#863c3e"/>
            <path d="m2352.39 773.29-.12.06c-.62.29 1.22-.47.12-.06Z" fill="#863c3e"/>
            <path d="M2341.79 774.64c.74.1.34.05 0 0s-.73-.09 0 0Z" fill="#863c3e"/>
            <path d="M2332 654.24c-.26.33-.14.18 0 0s.25-.34 0 0Z" fill="#863c3e"/>
            <path d="M2308.69 728.21c0-.13 0-.26-.05-.39s-.04-.31.05.39Z" fill="#863c3e"/>
            <path d="M2354.28 772.34c-.45.24-.9.48-1.36.7l-.56.26c1.1-.41-.74.35-.15.07l.12-.06a26 26 0 0 1-2.91.93c-.48.12-1 .23-1.45.32l-.6.1h.08c.88-.07-1.28.21-.21 0h.13c-1 .09-2 .16-3 .15-.5 0-1 0-1.51-.06l-.76-.06h-.29c.3.05.7.1 0 0s-.31 0 0 0h-.19l-.76-.14c-.58-.11-1.15-.24-1.72-.39a29 29 0 0 1-3-1l-.58-.23c.91.43-.73-.28-.18-.07l.18.07c-.54-.25-1.08-.5-1.6-.77q-1.58-.81-3.06-1.77c-.5-.32-1-.65-1.47-1l-.68-.5c.79.64-.55-.39 0 0l-.09-.07a45.1 45.1 0 0 1-5.67-5.47c-.41-.48-.82-1-1.21-1.45l-.25-.32.17.24s-.71-.9-.24-.32a.27.27 0 0 0 .07.08l-.61-.8c-.84-1.16-1.64-2.35-2.39-3.57s-1.62-2.76-2.36-4.18c-.33-.65-.65-1.31-1-2a10.54 10.54 0 0 1-1-2.16.43.43 0 0 1 0-.16.85.85 0 0 0 0 .16c.06.28.3.59.11.1l-.24-.56-.45-1.16c-.32-.83-.63-1.67-.92-2.52-.59-1.7-1.12-3.43-1.59-5.17a96.68 96.68 0 0 1-2.35-11.44v-.27c0 .13 0 .26.05.39-.09-.7-.08-.6-.05-.39v-.36c-.07-.51-.13-1-.18-1.51-.12-1.1-.23-2.19-.32-3.29-.18-2.21-.29-4.43-.35-6.65a87.1 87.1 0 0 1 .35-9.56c0 .16 0 .32-.07.49-.08.51.08-.67.08-.6v.11c.05-.35.11-.69.17-1 .12-.75.26-1.5.41-2.25.31-1.52.67-3 1.06-4.55.86-3.27 1.91-6.5 3.08-9.68.61-1.68 1.28-3.34 2-5a1.47 1.47 0 0 0-.06.14c.37-1 .16-.4.07-.18.06-.16.13-.32.2-.47l.54-1.24c.37-.82.74-1.65 1.13-2.47 1.61-3.46 3.37-6.86 5.25-10.18s4-6.66 6.14-9.86q1.64-2.38 3.36-4.69l.42-.55.16-.21c-.13.17-.25.32 0 0s.13-.17 0 0c.07-.09.14-.19.18-.23l.42-.54c.61-.76 1.22-1.51 1.85-2.26a94.87 94.87 0 0 1 7.51-8c1.24-1.17 2.51-2.3 3.83-3.38l1-.79.19-.16c-.22.15-.48.26.3-.22a2.86 2.86 0 0 0-.3.22l.1-.07c.73-.54 1.47-1.08 2.22-1.6q2-1.34 4-2.49a4.62 4.62 0 1 0-4.66-8c-13.51 7.61-23.85 20.48-31.89 33.47a149.29 149.29 0 0 0-11 21.69 101 101 0 0 0-6.1 19.73 80.56 80.56 0 0 0-.57 22.79 97.43 97.43 0 0 0 5.17 24.1c4.36 11.93 11.58 23.31 22.55 30.15 8.35 5.19 19.05 7.18 28.36 3.44a33.49 33.49 0 0 0 3.84-1.79 4.62 4.62 0 1 0-4.66-8Z" fill="#863c3e"/>
            <path d="M2346.93 638.87a2.86 2.86 0 0 1 .3-.22c-.78.48-.52.35-.3.22Z" fill="#863c3e"/>
            <path d="M2308 706.94c0-.17 0-.33.07-.49s0-.07 0-.11-.07 1.11-.07.6Z" fill="#863c3e"/>
            <path d="M2314.72 684.06a1.47 1.47 0 0 1 .06-.14c.1-.26.31-.86-.06.14Z" fill="#863c3e"/>
            <path d="M2216.78 755.71c-12.92.73-26.16 2.83-37.23 9.52-13.7 8.29-22.47 22.53-30.89 36.15q-33.26 53.8-69.91 105.4c-4.88 6.87-10.39 14.14-18.46 16.55-7.71 2.31-15.91-.36-23.56-2.86-42-13.69-92.79-21-126.43 7.64-5.08 27 22.39 54.69 49.44 49.81 20.2-3.64 41.59-21.24 58.42-9.49a128.21 128.21 0 0 0-60 41.55c48.57 8.1 40.22 97.4 87.74 110.3 20.17 5.48 41.77-6.54 62.2-2.11 18.85 4.1 31.73 20.81 45.37 34.46 46.79 46.84 120.59 64.53 183.54 44a1568.22 1568.22 0 0 1 17.2-317.18l32.09-49.5c-40.69-49.42-105.62-77.87-169.52-74.24Z" fill="#863c3e"/>
            <path d="M2285.66 615.77c-8.25 2.12-15.62 6.81-22.21 12.2-23.94 19.62-39 50.89-35.54 81.65s27.36 59.15 57.87 64.35l15.71-6.92c12.6-1.33 20.72-13.66 26.48-24.94 12.82-25.09 23.47-53.31 18-80.94s-32.97-52.41-60.31-45.4Z" fill="#863c3e"/>
            <path d="M2308.2 636.9c-7.7-1.36-15.31 1.6-21.95 5.24a78.53 78.53 0 0 0-39.87 63.27 76.48 76.48 0 0 0 8.09 38.13 78.09 78.09 0 0 0 25.45 29.54c1.34.93 2.72 1.8 4.13 2.64 2.56 1.52 4.89-2.47 2.33-4a73.9 73.9 0 0 1-35.46-60.32c-.7-23.9 11.64-47.62 31.2-61.27 5.92-4.13 13-8.3 20.38-8.9 6.21-.5 13.44 2.3 14.93 9 .64 2.9 5.1 1.67 4.45-1.23-1.42-6.41-7.41-11-13.68-12.1Z" fill="#3e1c1a"/>
            <path d="M2306.57 808.64c-24.88-5.83-51.25-2.34-74.34 8.35-23.49 10.86-43.13 29.29-54.58 52.56-13.34 27.08-16.73 57.62-28.52 85.26a113.76 113.76 0 0 1-23.3 35.33 110.34 110.34 0 0 1-33.94 23.51c-23.53 10.41-51.6 11.75-71.89 28.87a53.28 53.28 0 0 0-6.56 6.62c-1.89 2.27 1.36 5.56 3.26 3.27 8.1-9.74 19.4-15.53 31.16-19.67 12.35-4.35 25.17-7.17 37.5-11.58a115.09 115.09 0 0 0 61.86-51.92c14.66-26.32 18.4-56.75 28.94-84.65 4.77-12.63 11.15-24.6 20-34.86a111.59 111.59 0 0 1 28.51-23.59c21.41-12.46 47.12-18.28 71.76-14.74 3 .43 6 1 8.94 1.69s4.1-3.77 1.2-4.45Z" fill="#3e1c1a"/>
            <path d="M2300.44 802.06c-26.64-9.22-55.87-9.53-83-2.38s-52.33 21.66-71.36 42.21c-9.83 10.62-17.32 22.75-24.15 35.44-7 12.91-13.47 26.37-22.83 37.77-9.76 11.89-22.4 20-37.6 23-16.62 3.23-33.92.78-50.39-2.17-15.53-2.79-30.94-6.18-46.78-6.65-14.89-.45-30.45 1.54-43.49 9.21a57.84 57.84 0 0 0-8.82 6.43c-2.23 2 1 5.22 3.27 3.26 23.64-20.77 58.73-14.6 86.84-9.24 16.3 3.1 33 6.14 49.65 5 15.77-1.06 30.66-6.37 42.49-17 21.68-19.51 29.7-49.22 46.94-72.07 16.65-22.07 40.53-38.41 66.56-47.39s54.8-10.92 81.62-3.93q5 1.31 9.85 3c2.76.94 4-3.55 1.2-4.49Z" fill="#3e1c1a"/>
            <path d="M2325.05 835.15c0 16-3.79 32.58-11.9 46.44-3.37 5.75-7.74 11.14-13.58 14.51a20.91 20.91 0 0 1-16.45 2.18c-5.68-1.63-10.59-5.67-11.64-11.68a2.34 2.34 0 0 0-2.84-1.62 2.36 2.36 0 0 0-1.61 2.85c2.31 13.24 19 18.79 30.43 14.36 15.16-5.87 23.16-22.35 27.68-36.93a102.11 102.11 0 0 0 4.53-30.11c0-2.98-4.62-2.98-4.62 0Z" fill="#3e1c1a"/>
            <path d="M2349.89 717.35v.33c.01-.36.01-.42 0-.33Z" fill="#863c3e"/>
            <path d="M2350.36 698.6c-.08-.63 0-.17 0 .21Z" fill="#863c3e"/>
            <path d="M2336 753.78Z" fill="#863c3e"/>
            <path d="m2326.16 643.6.07.1c.44.54-.46-.62-.07-.1Z" fill="#863c3e"/>
            <path d="M2328.61 761.34c-.15.1-.29.21-.43.32v.05s.82-.63.43-.37Z" fill="#863c3e"/>
            <path d="M2342.54 672v.08c.19.32.3.58 0-.08Z" fill="#863c3e"/>
            <path d="m2304.33 766.3-.36-.16a2.18 2.18 0 0 0-.23-.09s1.19.53.59.25Z" fill="#863c3e"/>
            <path d="M2346.88 659.49c-7.05-14-16.38-27.58-29-37.18q-2-1.51-4.09-2.84a4.66 4.66 0 0 0-6.32 1.66 4.72 4.72 0 0 0 1.66 6.32c.65.41 1.3.83 1.93 1.27.33.22.65.45 1 .68s1.09.59 1.2.89c0 0-.89-.7-.23-.17l.47.37.94.77c.67.56 1.32 1.14 2 1.73a81.38 81.38 0 0 1 7.33 7.64c.58.68 1.14 1.36 1.69 2l.8 1-.07-.1c-.39-.52.51.64.11.14l.44.57c1.17 1.55 2.29 3.13 3.38 4.73 2.14 3.16 4.14 6.43 6 9.77s3.58 6.75 5.17 10.23c.38.83.75 1.67 1.12 2.5 0 .11.14.34.23.55v-.08c.3.69.19.43 0 .08.19.44.37.88.55 1.33q1.05 2.55 2 5.14a102.78 102.78 0 0 1 5.17 19.49c0 .1.09.59.12.8 0-.38-.11-.84 0-.21v.56c.08.72.16 1.44.22 2.17.1 1.35.16 2.71.16 4.07a104 104 0 0 1-.92 12v.33-.33c0 .17-.11.83-.14 1l-.24 1.51c-.17 1-.35 2.09-.55 3.13q-.57 2.93-1.3 5.8a87.14 87.14 0 0 1-3.4 10.48 9.85 9.85 0 0 1-.47 1.17c.61-1.09 0 0-.15.33-.37.83-.76 1.66-1.16 2.48-.71 1.46-1.46 2.88-2.27 4.28s-1.6 2.63-2.46 3.9c-.41.6-.83 1.18-1.26 1.76-.11.15-.36.45-.46.57 0-.07.17-.2.38-.45-.25.3-.48.62-.73.92a48.51 48.51 0 0 1-5.75 6c-.47.41-.95.8-1.44 1.2-.06.05-.23.15-.31.23.14-.11.28-.22.43-.32.36-.26-.5.41-.48.37v-.05l-.39.29c-1 .73-2.08 1.42-3.16 2s-2.06 1.13-3.12 1.61l-.21.09c.25-.1.44-.18-.1 0s-.22.09.1 0l-.41.17c-.53.2-1.08.4-1.62.58a32 32 0 0 1-3.16.84l-1.4.25h.14c1-.08-1.24.21-.27 0h.13l-.71.07a26.34 26.34 0 0 1-3.2.07c-.5 0-1 0-1.49-.1h-.25.19c.67.13-.72-.09-.68-.09s.33 0 .49.06h-.26a24.69 24.69 0 0 1-3-.71c-.47-.14-.94-.3-1.4-.48l-.46-.18.36.16c.6.28-.62-.26-.59-.25a2.18 2.18 0 0 1 .23.09h-.06a25.6 25.6 0 0 1-2.73-1.47 4.62 4.62 0 1 0-4.66 8c8.92 5.53 19.66 5.32 29.08 1.23 11-4.78 19.34-14.82 24.59-25.36a88.8 88.8 0 0 0 7.53-22.29 123.3 123.3 0 0 0 2-14.05 65.9 65.9 0 0 0 .24-10.32c-1.05-14.81-6.47-29.3-13.05-42.4Z" fill="#863c3e"/>
            <path d="M2314.85 767.52h-.27c-.97.21 1.25-.08.27 0Z" fill="#863c3e"/>
            <path d="M2309.25 767.58h-.19c-.16 0-.32 0-.49-.06s1.35.19.68.06Z" fill="#863c3e"/>
            <path d="M2321.2 765.75c.54-.23.35-.15.1 0s-.77.25-.1 0Z" fill="#863c3e"/>
            <path d="M2218.68 833.64c-32.7 34.44-17.55 151.74-7.31 182.73 23.18 70.14 67.12 108.81 145.78 97 55-8.27 119.12-114.59 83.83-257-30.05-121.2-167.98-79.93-222.3-22.73Z" fill="#fad3ba"/>
            <path d="m2416.49 1152.84-5-38.24-4.49-34.6-6-47.1-145.45 14.1-2.5 40v.09l-1.64 25.14-.86 14-4 64.24s-17.31 57.69 90.33 57.69 84.47-57.52 84.47-57.52Z" fill="#fad3ba"/>
            <path d="M2465.82 961.2c-8.39-6-22.84-4.7-29.47 2.68l-7.36 55.79c6.45 5.52 17.34 6.46 25.79 3.31a31.28 31.28 0 0 0 17.62-17.05c3.1-7.25 3.52-15.11 3.06-22.79-.46-8-2.34-16.71-9.64-21.94Z" fill="#fad3ba"/>
            <path d="M2423.58 773.06c-15.76-12.93-32.15-25.9-51.76-32.82-37.65-13.29-81-1.64-114.15 19.69-46.85 30.12-78.93 79.56-85.91 132.34l2.58 39.68c67-13.36 128.42-50 169.6-101.26 35.44 40.57 82.11 72.47 134.19 91.71 4.24-32.84 8.15-67.75-7-97.62-10.55-20.68-29.13-36.62-47.55-51.72Z" fill="#863c3e"/>
            <path d="M2406.76 1080.25c-15.33 18.94-32.9 30.57-49.6 33.06-45.3 6.89-79.14-3.1-104-26.17l-.09-.09-1.64 25.14c20.5 17.31 50.67 30.44 83 34.14 21.88 2.5 58.58-10.63 75.57-43.13l-3-23.21c-.07.08-.07.17-.24.26Z" fill="#ffb08d"/>
            <path d="M2331.19 934.69a3.39 3.39 0 0 0-3.12 3.66c0 .38 2.83 37.53-4.5 60.21-3 0-8.19.16-13.59.76-12.46 1.38-18.82 4.42-20 9.58-2.22 9.52 17.69 28.64 23.84 34.28a3.4 3.4 0 1 0 4.6-5c-12.41-11.37-22.61-24.32-21.81-27.72.17-.74 3.13-3.13 14.08-4.36a134.5 134.5 0 0 1 15.25-.71 3.44 3.44 0 0 0 3.26-2.21c8.81-23.79 5.8-63.66 5.67-65.35a3.4 3.4 0 0 0-3.68-3.14Z" fill="#de7360"/>
            <path d="M2347.49 1062.89c-.81.8-20.31 19.38-46.89 3a3.41 3.41 0 0 0-3.57 5.8c9.2 5.66 17.76 7.66 25.26 7.66 17.94 0 29.81-11.46 30-11.62a3.4 3.4 0 0 0-4.78-4.85Z" fill="#de7360"/>
            <path d="M2371.31 921.32a3.21 3.21 0 0 0 3.28 5.51c1.18-.7 29-16.74 46 10.43a3.21 3.21 0 0 0 5.44-3.4c-20.36-32.53-54.38-12.74-54.72-12.54Z" fill="#59261b"/>
            <path d="M2287.43 921.32c-.34-.2-34.37-20-54.71 12.54a3.21 3.21 0 0 0 5.44 3.4c17-27.17 44.81-11.13 46-10.43a3.21 3.21 0 0 0 3.28-5.51Z" fill="#59261b"/>
            <path d="M2477.65 955.77c-7.87-4.75-18-3.73-27.44 1.47 12 11 12.44 34 .27 54.16a62.6 62.6 0 0 1-14.83 16.95c-.47-.24-1-.34-1.44-.61 14 8.44 35.05-.82 47-20.7s10.43-42.82-3.56-51.27Z" fill="#f48571"/>
            <path d="M2450.25 957.28a255.85 255.85 0 0 1-14.73 71c.09.08.09.08.17.08a62.86 62.86 0 0 0 14.81-16.88c12.14-20.27 11.72-43.26-.25-54.2Z" fill="#ffb08d"/>
            <path d="M2200.6 1011.4c-12.17-20.17-11.71-43.14.26-54.16-9.47-5.2-19.56-6.22-27.43-1.47-14 8.45-15.6 31.4-3.61 51.27s33.06 29.14 47 20.7c-.46.27-1 .37-1.45.61a62.57 62.57 0 0 1-14.77-16.95Z" fill="#f48571"/>
            <path d="M2200.87 957.28c-12 10.94-12.4 33.93-.26 54.16a62.86 62.86 0 0 0 14.81 16.88c.09 0 .17-.08.26-.08-1.55-3.88-2.93-7.84-4.31-11.89-3.7-11.19-8-33.5-10.5-59.07Z" fill="#ffb08d"/>
            <path d="M2252 989.44c-16.19-1-30 8.87-30.78 22s11.66 24.64 27.85 25.63 30-8.86 30.79-22-11.69-24.63-27.86-25.63Z" fill="#ffb08d"/>
            <path d="M2394.5 994.86c-16.19-1-30 8.87-30.78 22s11.66 24.64 27.85 25.63 30-8.87 30.78-22-11.66-24.63-27.85-25.63Z" fill="#ffb08d"/>
            <path d="M2201 895.21c-18.3.68-32.36 21.91-31.4 47.42s16.56 45.62 34.86 44.93 32.36-21.91 31.4-47.41-16.53-45.63-34.86-44.94Z" fill="#3c1688"/>
            <path fill="#9c7bd1" d="M2215.148 941.084c.574 15.348-7.887 28.124-18.897 28.535-11.01.412-20.401-11.697-20.975-27.045-.573-15.348 7.887-28.124 18.898-28.536 11.01-.411 20.4 11.698 20.974 27.046z"/>
            <path d="M2449.2 895.21c-18.29-.69-33.9 19.43-34.86 44.94s13.11 46.73 31.41 47.41 33.9-19.43 34.86-44.93-13.11-46.74-31.41-47.42Z" fill="#3c1688"/>
            <path d="M2456 913.88c-11-.42-20.4 11.69-21 27s7.89 28.12 18.9 28.53 20.41-11.69 21-27-7.9-28.12-18.9-28.53Z" fill="#9c7bd1"/>
            <path d="M2431.08 881.61 2223.49 879c-12.8-.22-23.39 11.79-23.65 26.83l-1.32 75.55c-.26 15 9.91 27.41 22.71 27.63l207.59 2.6c12.81.22 23.4-11.79 23.66-26.83l1.31-75.55c.26-15.03-9.9-27.4-22.71-27.62Z" fill="#3c1688"/>
            <path d="m2430.92 891.35-207.6-2.74a23.17 23.17 0 0 0-23.58 22.77l-1.12 64.31a23.19 23.19 0 0 0 22.78 23.58L2429 1002a23.18 23.18 0 0 0 23.58-22.78l1.12-64.3a23.19 23.19 0 0 0-22.78-23.57Z" fill="#681bc5"/>
            <path d="m2429.55 895.25-205-2.7a20.55 20.55 0 0 0-20.91 20.19l-1.07 61.73a20.54 20.54 0 0 0 20.19 20.9l205 2.7a20.54 20.54 0 0 0 20.9-20.19l1.08-61.72a20.57 20.57 0 0 0-20.19-20.91Z" fill="#9c7bd1"/>
            <path d="M2417.72 907.78h-2.81l-20.75-.36-23.47-.4-28.92-.51-107.42-1a12.3 12.3 0 0 0-12.51 12.09l-.91 52.29a12.31 12.31 0 0 0 12.07 12.46l52.65.06 28.91.5 23.48.4 20.76.37 57.59 1a12.31 12.31 0 0 0 12.51-12.09l.91-52.29a12.32 12.32 0 0 0-12.09-12.52Z" fill="#201352"/>
            <path d="M2412.62 917.09a7.5 7.5 0 1 0 7.36 7.62 7.49 7.49 0 0 0-7.36-7.62Z" fill="#07e1f2"/>
            <path d="M2412.23 939.41a7.5 7.5 0 1 0 7.36 7.63 7.5 7.5 0 0 0-7.36-7.63Z" fill="#f68a27"/>
            <path fill="#682aee" d="m2285.65 982.41 28.91.5 56.11-75.94-28.92-.51-56.1 75.95z"/>
            <path fill="#682aee" d="m2394.14 907.37-56.09 75.94 20.75.37 56.1-75.94-20.75-.37h-.01z"/>
            <path d="m1947.14 1726.17-181.32-39.07c-.59 1-19.5 32.54-27.91 63.8-3.59 13.34-7.62 29-10.91 44.91-4.57 22-7.7 44.39-6.26 61.62 2.49 29.67 7 67.26 38.93 85.57 28.15 16.12 71.42 9.45 107.22-1.25 4.86-1.44 9.57-3 14.1-4.52 37.89-13 97-35.47 97-35.47l-15.5-121.67Z" fill="#fad3ba"/>
            <path d="M2323.53 1466.51a4.76 4.76 0 0 0-.21-1.32c-1.69-2.91-3.26-9.69-3.25-14.52s-3-16.47-11-17.61-11.2 2.35-25.22 32.2-55.85 135.31-55.85 135.31l-307.37 120.33 57.4 180.88 98.56-59.25s215-118.48 229.79-132.28 15.74-74.35 16-82.58c.12-4.21.82-45.85 1.23-85.92a.11.11 0 0 1 0-.08c.35-33.45.52-65.79 0-74.33-.04-.34-.06-.58-.08-.83Z" fill="#fad3ba"/>
            <path d="M2909.29 1750.92c-8.41-31.26-27.33-62.82-27.93-63.8L2700 1726.17l-6.11 21.42-29.65 146.46s64 30.22 101.92 43.2a315.77 315.77 0 0 0 47.11 12.45c27 4.72 54.36 4.69 74.21-6.68 32-18.31 36.44-55.9 38.92-85.57a150.56 150.56 0 0 0-.75-28c-2.74-25.92-10.22-55.67-16.36-78.53Z" fill="#fad3ba"/>
            <path d="M2363.31 1465.26c-14-29.85-17.29-33.33-25.23-32.2s-11 12.77-11 17.61-1.56 11.61-3.26 14.52a2 2 0 0 0-.11.41c0 .37-.11.94-.15 1.69-.52 8.55-.36 40.88 0 74.33a.11.11 0 0 0 0 .08c.42 40.07 1.11 81.71 1.23 85.92.25 8.23 1.22 68.77 16 82.58s229.79 132.28 229.79 132.28l93.67 51.53 62.27-173.16-311.95-118.38s-37.24-107.35-51.26-137.21Z" fill="#fad3ba"/>
            <path d="M2334.58 1449.78a10.36 10.36 0 0 0-8.15-.93l-1 .37-1.86 8.29-2-8.72-1.48-.06c-.61 0-15.2-.3-20.87 32.55-5.39 31.29-8.69 84-8.72 84.5a1.94 1.94 0 1 0 3.87.24c0-.52 3.32-53 8.68-84.08 4-23 12.18-28 15.46-29l2.8 12.52.12 131.67h3.88l.4-131.64 2.95-13.13a7.18 7.18 0 0 1 4.13 1c2.85 1.59 6.8 5.89 9.41 17.37 5.34 23.5 10.24 101.67 10.29 102.46a1.94 1.94 0 1 0 3.87-.24c-.2-3.22-5-79.28-10.37-103.08-2.31-10.55-6.17-17.27-11.41-20.09Z" fill="#f5927e"/>
            <path d="M2368.6 1473.54a1.94 1.94 0 1 0-3.85.49l6.91 54.77a1.94 1.94 0 0 0 1.92 1.7h.25a2 2 0 0 0 1.68-2.17Z" fill="#f5927e"/>
            <path d="M2279.48 1472.84a1.94 1.94 0 0 0-2.09 1.77l-3.94 48.86a1.93 1.93 0 0 0 1.77 2.09h.16a1.94 1.94 0 0 0 1.93-1.79l4-48.85a1.93 1.93 0 0 0-1.83-2.08Z" fill="#f5927e"/>
            <path d="M2320.73 1568.43a18.41 18.41 0 0 0-2.12-3 12.17 12.17 0 0 0-3.07-2.6 10 10 0 0 0-4.29-1.4 9.4 9.4 0 0 0-4.56.79 10.7 10.7 0 0 0-3.49 2.51c-.24.27-.47.57-.69.86a6 6 0 0 0-.59.85c-.29.53-.65 1.1-.86 1.6a41.17 41.17 0 0 0-2.25 6c-.61 2-1.11 3.94-1.56 5.9-.94 3.92-1.67 7.84-2.32 11.77-1.36 7.84-2.31 15.71-3.13 23.58s-1.37 15.77-1.57 23.7c3.46-15.45 6.53-30.93 10.13-46.17.92-3.8 1.9-7.58 2.95-11.29.53-1.86 1.11-3.69 1.72-5.47a35.29 35.29 0 0 1 2-5 9.76 9.76 0 0 1 .58-1 1.21 1.21 0 0 1 .26-.35l.23-.3a3.94 3.94 0 0 1 1.29-.9 2.57 2.57 0 0 1 2.47.3 8.74 8.74 0 0 1 2.69 3.09 24.56 24.56 0 0 1 2 4.72 56.1 56.1 0 0 1 2 10.89c.4 3.76.53 7.59.56 11.45 0 7.88.09 15.77.31 23.66.34 15.77.92 31.56 2.22 47.34 1.67-15.75 2.64-31.51 3.35-47.28.4-7.88.65-15.76.88-23.65.16-8.06-.12-16.25-2.55-24.52a31.23 31.23 0 0 0-2.59-6.08Z" fill="#e07a6c"/>
            <path d="M2318.54 1519.12c-1.81 16.24-3.71 32.47-5.87 48.63l7.09.7c1-16.37 1.71-32.72 2.34-49.07l.85-24.52c.24-8.17.51-16.34.66-24.52-.74 8.14-1.6 16.27-2.44 24.4Z" fill="#e07a6c"/>
            <path d="M2353.4 1591.76c-.66-3.93-1.39-7.85-2.32-11.77-.46-2-1-3.93-1.57-5.9a41.17 41.17 0 0 0-2.25-6c-.21-.5-.57-1.07-.86-1.6a6 6 0 0 0-.59-.85c-.22-.29-.45-.59-.68-.86a10.74 10.74 0 0 0-3.5-2.51 9.38 9.38 0 0 0-4.56-.79 10 10 0 0 0-4.29 1.4 12.17 12.17 0 0 0-3.07 2.6 18.41 18.41 0 0 0-2.12 3 30.6 30.6 0 0 0-2.63 6.16c-2.43 8.27-2.72 16.46-2.56 24.52.23 7.89.48 15.77.88 23.65.72 15.77 1.68 31.53 3.35 47.28 1.3-15.78 1.89-31.57 2.22-47.34.22-7.89.27-15.78.32-23.66a111.13 111.13 0 0 1 .56-11.45 55.36 55.36 0 0 1 2-10.89 24 24 0 0 1 2-4.72 8.63 8.63 0 0 1 2.68-3.09 2.57 2.57 0 0 1 2.47-.3 3.94 3.94 0 0 1 1.29.9l.23.3a1.21 1.21 0 0 1 .26.35 9.76 9.76 0 0 1 .58 1 36.51 36.51 0 0 1 2.06 5c.6 1.78 1.18 3.61 1.71 5.47 1 3.71 2 7.49 2.95 11.29 3.6 15.24 6.67 30.72 10.13 46.17-.2-7.93-.84-15.81-1.57-23.7s-1.77-15.82-3.12-23.66Z" fill="#e07a6c"/>
            <path d="M2327.15 1494.74c-.84-8.13-1.7-16.26-2.44-24.4.15 8.18.42 16.35.66 24.52l.86 24.52c.62 16.35 1.33 32.7 2.33 49.07l7.1-.7c-2.17-16.16-4.07-32.39-5.88-48.63Z" fill="#e07a6c"/>
            <path d="M2583.88 1624.7s21.93 28.59 29.49 38c4.56 5.67 19 22.35 19 22.35l45.91 23.31-94.61-209.46c15.69 57.56.21 125.8.21 125.8Z" fill="#ffb08d"/>
            <path fill="url(#78f91007-fe6b-42ec-b11a-0e1f0296b94e)" d="M3573.98 1038.44c0 158.594-128.566 287.16-287.16 287.16-158.594 0-287.16-128.566-287.16-287.16 0-158.594 128.566-287.16 287.16-287.16 158.594 0 287.16 128.566 287.16 287.16z"/>
            <g opacity=".5">
                <path d="M3506.85 864.27c-14.58 4.2-32 7.31-50.76 9.73a407 407 0 0 1-59.07 2 452.56 452.56 0 0 1-58.62-6.89c-18.45-3.83-35.56-8-49.83-12.78-7.22-2.16-13.7-4.52-19.42-6.69s-10.73-4-14.74-5.77l-12.69-5.37-12.6-5.64c-4-1.72-8.83-4.08-14.3-6.84l-8.74-4.34-9.5-5.18c-13.32-7.09-28.31-16.41-44.08-26.85-1-.69-2.06-1.45-3.09-2.15q-6 3.38-11.92 7c2.56 1.91 5.11 3.84 7.65 5.67 15.8 11.14 30.91 21.11 44.41 28.75l9.64 5.57 8.88 4.69c5.56 3 10.43 5.52 14.56 7.39l12.87 6.12 13.27 5.27c4.19 1.75 9.39 3.61 15.39 5.6s12.73 4.37 20.24 6.42c14.87 4.59 32.65 8.39 51.77 11.77a445.42 445.42 0 0 0 60.57 5.18 393.41 393.41 0 0 0 60.53-4.41c19.08-3.31 36.73-7.37 51.32-12.54l6.79-2.32c-1.18-1.62-2.36-3.25-3.58-4.85q-2.41.77-4.95 1.46Z" fill="#ffffff"/>
                <path d="M3457.65 1173.79c-25.08-2-50.09-5.58-73.63-9s-45.67-6.64-64.83-8.5c-38.35-4-64.47-2.42-64.47-2.42l-4.73.35a130.5 130.5 0 0 0-13.57 1.84 78.66 78.66 0 0 0-20.93 7 53.57 53.57 0 0 0-21.8 20.17 41.26 41.26 0 0 0-5.59 16.9 37.92 37.92 0 0 0 3.16 18.93c5.53 12.36 16.76 20.49 28.07 25.85 11.46 5.51 24 8.89 36.4 11.34l37.11 7.56c42.6 8.66 85.16 17.21 120 24 3.1-1.54 6.14-3.16 9.17-4.81-35.83-8.66-81.26-19.33-126.84-29.92l-36.91-8.54c-12-2.66-23.32-6.11-33.23-11.17-9.89-4.9-18-11.8-21.25-19.73a24.77 24.77 0 0 1 2.17-23.06c8.63-13.71 23.4-17.8 33.23-19.55a119.52 119.52 0 0 1 12-1.39l4.37-.25 4.42-.24 12.63-.35c10.9-.08 26.51.25 45.31 1.76s40.75 4.1 64.38 7 49 5.93 74.66 7.2a370.23 370.23 0 0 0 71.57-3c1.91-3.13 3.76-6.28 5.55-9.49-1 .13-2 .28-2.95.4-23.29 2.86-48.46 3.06-73.47 1.12Z" fill="#ffffff"/>
                <path d="M3397.66 1205.81c-6.85-.51-13.36-.07-18 1.23a31.14 31.14 0 0 0-7.24 2.84l-1.35.84a19.51 19.51 0 0 0-2.44 1.9 16.32 16.32 0 0 0-3.89 5.25 15.3 15.3 0 0 0-1.21 7.1 16.84 16.84 0 0 0 4.12 9.52 29.22 29.22 0 0 0 7.87 6.38 37.86 37.86 0 0 0 4.82 2.36l4.66 1.77a426.22 426.22 0 0 0 43.58 13.51c8.27 2.13 16.46 3.85 24.05 5.23 2.7-2 5.39-3.9 8-5.94-8.89-2.57-19-5.63-29.12-9.2-14.75-5.11-29.61-11-41.35-16.32l-4.15-1.88a23.83 23.83 0 0 1-3-1.73 14.89 14.89 0 0 1-3.82-3.44c-.75-1.13-.42-.91-.43-1s.09 0 .12 0-.07.08.13-.09a5.43 5.43 0 0 1 .61-.44l.49-.29a6.68 6.68 0 0 1 .88-.48 18.1 18.1 0 0 1 2.91-1.23c2.66-.92 7.08-1.62 13.26-1.55 12.7.18 30.08 1 47.25 2.3 18.16 1.31 36.22 3.52 49.36 5 1.47-1.57 2.93-3.14 4.36-4.74a472.27 472.27 0 0 0-52.43-11.18c-17.37-2.8-34.7-4.73-48.04-5.72Z" fill="#ffffff"/>
                <path d="M3410.05 791.19c-23 7.2-46.05 13-63.43 14a164.94 164.94 0 0 1-20.85.26l-7.8-.81s-11.49-.31-27.82-5.68a123.38 123.38 0 0 1-26.45-12.56c-9.06-5.77-18.2-13.1-25.15-21.91a54.81 54.81 0 0 1-5.14-7.63c-3.5.68-7 1.37-10.45 2.18a63.5 63.5 0 0 0 6.76 12c15.22 21.21 37.75 34.54 55.58 41.4a132.45 132.45 0 0 0 22.3 6.37 74.28 74.28 0 0 0 8.72 1.29l8.78.56a172.76 172.76 0 0 0 23-1.22c18.91-2 42.79-9.25 65.54-17.87 7.17-2.73 14.26-5.49 21.18-8.18q-5.51-3.37-11.17-6.51Z" fill="#ffffff"/>
                <path d="M3181.3 1259.74a128.92 128.92 0 0 1-14-13.6s-1.38-1.35-3.61-3.83a86.29 86.29 0 0 1-8.34-10.85c-6.13-9.36-12.09-23.93-10.14-38.72 1.71-14.88 10.69-28.68 18.11-38.1s13.23-15.57 12.45-16.42-7.71 3.71-16.92 12.36c-9 8.54-20.67 22.31-24.47 40.33a62.06 62.06 0 0 0 .4 26.48 80.89 80.89 0 0 0 8.27 21.38 97.36 97.36 0 0 0 9 13.35c2.41 3 3.9 4.63 3.9 4.63a136.37 136.37 0 0 0 16.33 14.14c10.26 7.73 24.28 16.55 38.68 24.84 12.59 7.3 25.54 13.81 36.21 18.66 5.06.71 10.16 1.31 15.32 1.76-10.42-6.74-28.44-17.63-45.67-29.71-13.32-9.29-26.55-18.98-35.52-26.7Z" fill="#ffffff"/>
                <path d="M3052.16 1133.48a40.73 40.73 0 0 0-6.34-13.47 62 62 0 0 0-5.74-7.1q-3-3.3-6.49-6.79c-4.58-4.62-9.65-9.35-14.91-13.85-3.28-2.86-6.65-5.57-10-8.13 1 5.91 2.35 11.74 3.76 17.52 4.1 4.37 8.06 8.82 11.64 13.13 2 2.39 3.86 4.72 5.61 7a51.11 51.11 0 0 1 4.1 6 26.06 26.06 0 0 1 3.49 8.88 7.21 7.21 0 0 1 .09 2.67 5.08 5.08 0 0 1-.24 2c-.47 1.09-1 2.58-4.5 4.18a34.39 34.39 0 0 1-4.9 1.65q2.84 6.51 6 12.86a41.57 41.57 0 0 0 4.13-1.19 24.77 24.77 0 0 0 8.38-4.83 21.33 21.33 0 0 0 4.95-6.81 20.67 20.67 0 0 0 1.5-5.23 9.87 9.87 0 0 0 .2-1.84 22.4 22.4 0 0 0-.73-6.65Z" fill="#ffffff"/>
            </g>
            <path d="M3059.93 927.13c-8.22-.17-12.33-.23-20.55-.32a1.69 1.69 0 0 0-1.28.73c-7.43 9.74-11.13 14.48-18.48 23.66-4.73-9.85-7.11-14.61-11.93-23.79a1.21 1.21 0 0 0-1.07-.69c-8.16 0-12.24.08-20.4.21a.69.69 0 0 0-.76.66l-16 113.18c-.08.55.1.89.52 1 7.25 2.16 10.88 3.22 18.14 5.31.42.12.68-.1.76-.68l12.36-88.33c5.43 11 8.12 16.74 13.44 28.59 8.4-10 12.64-15.27 21.16-26.08q-6.48 47.61-13 95.22c-.08.62.09 1 .52 1.1 7.29 2 10.94 2.93 18.25 4.82.43.11.69-.15.78-.8q9-66.51 18-133c.17-.51-.02-.78-.46-.79Z" fill="#ffffff"/>
            <path d="M3129.34 929.74q-26.78-1.37-53.55-2.22c-.45 0-.71.25-.78.77l-19 136.1c-.09.66.08 1 .51 1.15q26.23 6.46 52.48 12.46c.43.1.69-.13.77-.7l3.35-24.31c.1-.71-.07-1.1-.5-1.19-13.48-2.6-20.22-3.94-33.66-6.69q2.48-17.86 4.93-35.72c13.54 2.07 20.31 3.1 33.87 5.13q.66.11.78-.75c1.26-9.64 1.9-14.47 3.16-24.11.08-.56-.1-.88-.54-.93-13.55-1.64-20.32-2.44-33.86-4l4.4-31.84c13.62 1 20.43 1.51 34 2.65.45 0 .71-.23.79-.8 1.32-9.55 2-14.32 3.29-23.87.22-.74.01-1.11-.44-1.13Z" fill="#ffffff"/>
            <path d="M3202.58 935q-31.57-2.87-63.24-4.72c-.44 0-.7.25-.78.82l-3.5 24.08c-.09.72.13 1.1.69 1.15 8.63.75 12.95 1.13 21.58 1.94l-17.3 125.27c-.1.73.06 1.14.5 1.23 7.39 1.53 11.08 2.28 18.48 3.74.44.09.71-.24.81-1q8.71-63.68 17.42-127.34c8.69.87 13 1.32 21.72 2.25.44 0 .72-.31.82-1.07 1.41-10.15 2.11-15.23 3.51-25.39.08-.56-.15-.89-.71-.96Z" fill="#ffffff"/>
            <path d="M3243.74 939.15c-9.61-1.06-14.42-1.57-24-2.51-.44 0-.76.23-1 .83q-20.91 76.68-42 153.32c-.1.76.06 1.18.5 1.26 7.28 1.37 10.92 2 18.21 3.35.44.07.76-.25 1-1 1.64-6.54 2.47-9.82 4.11-16.37 8.95 1.51 13.42 2.24 22.38 3.68-.21 6.86-.31 10.29-.52 17.15 0 .79.23 1.22.67 1.29 7.3 1.21 11 1.8 18.28 2.94.54.09.82-.26.81-1.06q1.22-80.93 2.33-161.87c-.09-.62-.32-.96-.77-1.01Zm-18.58 51.69q-1.07 32.83-2.16 65.66c-6.33-1-9.5-1.45-15.82-2.43q8.18-31.72 16.33-63.44c.73-3.37 1.1-5.06 1.84-8.43-.08 3.46-.11 5.18-.19 8.64Z" fill="#ffffff"/>
            <path d="M3326.43 950c-7.39-1.12-11.09-1.66-18.49-2.71-.44-.06-.76.21-1 .81l-28 105q.6-54.28 1.19-108.57c0-.64-.26-1-.7-1-7.48-1-11.22-1.42-18.71-2.31-.55-.06-.82.22-.79.85q.42 81.45.74 162.9c0 .79.22 1.22.66 1.28 8 1.17 12 1.73 20 2.82.43.06.77-.29 1-1q22.34-78.63 44.67-157.07c.15-.61 0-1-.57-1Z" fill="#ffffff"/>
            <path d="M3390.41 960.67q-26.34-4.74-52.78-9c-.44-.07-.7.21-.78.82l-22.2 159.51c-.1.78.06 1.19.5 1.24q26.78 3.1 53.58 5.69c.44 0 .7-.24.79-.85 1.43-10.36 2.14-15.54 3.58-25.91.1-.75-.07-1.16-.51-1.2-13.66-1.49-20.48-2.27-34.13-3.91l5.58-40.4c13.62 1.82 20.43 2.72 34 4.52.44 0 .71-.22.79-.83 1.35-10.28 2-15.42 3.38-25.7.08-.61-.1-.94-.53-1-13.52-2-20.29-3-33.82-4.92l5-36c13.5 2.11 20.25 3.21 33.74 5.47.43.07.69-.19.78-.8 1.4-10.18 2.11-15.28 3.51-25.46.11-.77-.04-1.19-.48-1.27Z" fill="#ffffff"/>
            <path d="M3455.32 979.56a28.6 28.6 0 0 0-15.46-9.18c-13.2-2.76-19.81-4.08-33.05-6.63q-.66-.12-.78.78l-21.69 154.67c-.11.76.06 1.15.51 1.19 7.51.64 11.27.94 18.79 1.51.45 0 .72-.32.82-1.06l9.18-65.24 10.9 1.41c4.07.52 7.25 2.9 9.53 7.09a22.3 22.3 0 0 1 2.34 14.08l-6.2 44.91a.54.54 0 0 0 .57.69c7.53.47 11.3.69 18.83 1.1q.84 0 1-1 2.91-21.78 5.84-43.56c1.59-11.47 0-21.78-4.76-31.18a37.15 37.15 0 0 0 5.35-5.9 50.37 50.37 0 0 0 9.5-23.81 51.78 51.78 0 0 0-1.47-22.19 45.1 45.1 0 0 0-9.75-17.68Zm-8.48 36.44a18.72 18.72 0 0 1-5.62 11.5c-3.09 2.92-6.34 4.14-9.74 3.62l-14.16-2.15c1.92-13.94 2.88-20.91 4.81-34.84 5.64 1 8.46 1.52 14.1 2.56 3.5.65 6.3 2.89 8.41 6.69a19.79 19.79 0 0 1 2.2 12.62Z" fill="#ffffff"/>
            <path d="M3527 993.92a30.35 30.35 0 0 0-15.07-9.21 24.16 24.16 0 0 0-16.39 1.51 33.49 33.49 0 0 0-13.67 12 47.1 47.1 0 0 0-7.32 20.2 58.79 58.79 0 0 0 1.18 23.67 39.6 39.6 0 0 0 11.12 18.57q4.46 4.13 9.54 8.65c3.38 3 5.88 5.17 7.48 6.57 4.78 4.17 6.85 8.62 6.18 13.48a18.93 18.93 0 0 1-5.18 10.8c-2.87 3-6 4.42-9.46 4.19s-6.16-2-8.15-5.38a17.86 17.86 0 0 1-2.05-11.85l1.3-9.42c.09-.68-.08-1-.52-1.09l-18.52-2c-.55-.06-.88.26-1 1-.54 3.87-.8 5.8-1.34 9.66a48.71 48.71 0 0 0 1.49 21.43 35 35 0 0 0 9.73 15.83 23.65 23.65 0 0 0 15.66 6.22 30.72 30.72 0 0 0 17.17-4.77 43.7 43.7 0 0 0 13.77-13.52 46 46 0 0 0 7.1-19.33c1-7.5.31-14-2.16-19.54a44 44 0 0 0-11.16-15c-.29-.31-1.11-1-2.46-2.17s-2.88-2.47-4.56-4-3.26-2.94-4.71-4.19-2.41-2.12-2.91-2.61c-3.67-3.33-6.07-6.64-7.18-9.89a25.09 25.09 0 0 1-.74-11.65 17.51 17.51 0 0 1 5.16-10.64c2.83-2.71 5.93-3.68 9.29-3s5.88 2.78 7.87 6.18a18.18 18.18 0 0 1 2 12c-.83 6.49-1.24 9.73-2.07 16.21-.07.53.11.83.55.9 7.34 1.19 11 1.8 18.34 3 .44.07.69-.14.76-.65.87-6.26 1.3-9.39 2.16-15.64a44.64 44.64 0 0 0-11.23-36.52Z" fill="#ffffff"/>
            <path d="M3607.11 1012.69q-25.76-7.58-51.62-14.66c-.43-.11-.68.08-.75.58q-8.92 64.08-17.86 128.16c-.09.62.09.93.53.94q27 .19 54-.12a.7.7 0 0 0 .76-.67c1-7.51 1.55-11.27 2.59-18.78.08-.55-.11-.83-.55-.85-13.68-.52-20.52-.82-34.2-1.49 1.73-12.54 2.6-18.81 4.33-31.34 13.55 1.6 20.32 2.39 33.86 4a.61.61 0 0 0 .75-.58l2.4-18.64a.6.6 0 0 0-.56-.77c-13.37-2.28-20.06-3.4-33.46-5.64 1.54-11.17 2.32-16.76 3.86-27.94 13.29 3.06 19.92 4.62 33.16 7.82a.53.53 0 0 0 .74-.5l2.55-18.46c.07-.6-.11-.94-.53-1.06Z" fill="#ffffff"/>
            <path transform="rotate(-45 1267.647 1473.363)" fill="url(#df80b0ec-29fe-4a98-8112-8a3b27d95d18)" d="M1407.72 1473.36c0 77.364-62.716 140.08-140.08 140.08s-140.08-62.716-140.08-140.08 62.716-140.08 140.08-140.08 140.08 62.716 140.08 140.08z"/>
            <g opacity=".5">
                <path d="M1305.4 1340.94a174.12 174.12 0 0 1-17.4 18.77 203 203 0 0 1-23 18.15 224.74 224.74 0 0 1-25.42 14.45 216.77 216.77 0 0 1-23.64 9.52c-3.52 1.26-6.8 2.22-9.72 3s-5.45 1.56-7.57 2l-6.65 1.58-6.68 1.44c-2.12.5-4.72 1-7.71 1.47l-4.76.83-5.32.72c-7.4 1.08-16.11 1.76-25.47 2.22h-1.87q-1.41 3.12-2.69 6.31h4.72c9.58-.19 18.53-.65 26.16-1.56l5.48-.6 4.92-.74c3.1-.44 5.79-.86 8-1.32l6.93-1.34 6.84-1.79c2.19-.53 4.81-1.31 7.79-2.28s6.36-2 10-3.37a203.66 203.66 0 0 0 49.81-26.2 194.57 194.57 0 0 0 22.85-19.4 159.44 159.44 0 0 0 16.8-20.06l2-2.92c-.95-.3-1.9-.61-2.86-.89-.48.66-1 1.33-1.54 2.01Z" fill="#ffffff"/>
                <path d="m1293 1537.83 1.67-1.38 1.69-1.4 4.94-3.84c4.33-3.23 10.65-7.68 18.6-12.59s17.47-10.32 27.76-16.1 21.31-12 31.91-19a183 183 0 0 0 27.67-22.22c-.15-1.8-.34-3.61-.57-5.41l-1.06 1a182.73 182.73 0 0 1-29 22c-10.58 6.58-21.63 12.47-32 18s-20.18 10.74-28.37 15.62a218.85 218.85 0 0 0-26.45 18L1288 1532a63.56 63.56 0 0 0-4.88 4.72 39.16 39.16 0 0 0-6.3 8.93 26.45 26.45 0 0 0-2.78 14.45 20.33 20.33 0 0 0 2.72 8.38 18.71 18.71 0 0 0 6.82 6.63c5.83 3.31 12.7 3.26 18.79 2.08a74.85 74.85 0 0 0 17.85-6.15l17-7.87c19.55-9 39-18.13 55-25.64.78-1.52 1.52-3.06 2.24-4.61-16.84 7.06-38.1 16.13-59.4 25.28l-17.24 7.42a69.73 69.73 0 0 1-16.54 5.29c-5.39.94-10.67.58-14.27-1.64a12.27 12.27 0 0 1-5.9-9.84c-.58-8 4.11-14 7.53-17.56a59.34 59.34 0 0 1 4.36-4.04Z" fill="#ffffff"/>
                <path d="M1362 1509.3a27.57 27.57 0 0 0-6.82 5.77 15.55 15.55 0 0 0-2.06 3.26l-.29.73a9.53 9.53 0 0 0-.41 1.47 8 8 0 0 0 0 3.24 7.54 7.54 0 0 0 1.58 3.23 8.37 8.37 0 0 0 4.44 2.59 14.52 14.52 0 0 0 5 .24 19.33 19.33 0 0 0 2.62-.48l2.36-.66a209.88 209.88 0 0 0 21.36-7.39c3.93-1.58 7.7-3.29 11.13-5 .51-1.57 1-3.14 1.46-4.72-4.3 1.58-9.22 3.31-14.32 4.86-7.39 2.3-15 4.29-21.3 5.62l-2.2.47a11.76 11.76 0 0 1-1.71.19 7.27 7.27 0 0 1-2.53-.25c-.63-.23-.44-.24-.46-.27s0 .06 0-.07a3 3 0 0 1 .12-.36l.11-.26a3.08 3.08 0 0 1 .21-.45 8.78 8.78 0 0 1 .8-1.34 20.49 20.49 0 0 1 4.84-4.51c5.12-3.65 12.28-8.44 19.53-12.94 7.63-4.81 15.49-9.23 21.18-12.49.12-1 .24-2.11.34-3.16a232.23 232.23 0 0 0-24.2 10.92c-7.65 3.93-15.13 8.24-20.78 11.76Z" fill="#ffffff"/>
                <path d="M1387.58 1424.67a166.9 166.9 0 0 1-26.38 32.15 182.41 182.41 0 0 1-33.44 24.63 242.86 242.86 0 0 1-32.78 15.71c-10 3.83-18.4 6.69-24.39 8.44l-9.41 2.75s-13.64 4.2-34.61 8.83c-10.5 2.28-22.79 4.77-36 7s-27.45 4.32-41.69 6q-4.39.51-8.77 1c.77 1.69 1.56 3.36 2.4 5 2.31-.19 4.62-.38 6.93-.59 14.39-1.33 28.74-3.1 42.14-5.1s25.84-4.31 36.49-6.41c21.28-4.31 35.26-8.38 35.26-8.38s3.5-1 9.55-3 14.65-5 24.78-9.06a245 245 0 0 0 33.39-16.8 185.2 185.2 0 0 0 34-26.2 168.14 168.14 0 0 0 26.26-33.8c1.8-3 3.48-6 5-9-.65-1.5-1.34-3-2-4.48-2.13 3.78-4.31 7.54-6.73 11.31Z" fill="#ffffff"/>
                <path d="M1236.3 1574.18a41.09 41.09 0 0 0-13.53-11 56.67 56.67 0 0 0-11.38-4.39c-2.84-.76-4.49-1-4.49-1a88.61 88.61 0 0 0-16.36-1c-9.67.13-22 1.57-34.31 1.51q2.2 2.89 4.53 5.66c11.07.34 21.77-.32 29.75-.09a105.94 105.94 0 0 1 11 .8c2.61.36 4 .67 4 .67s1.47.2 4 .77a50 50 0 0 1 10 3.42 35.2 35.2 0 0 1 11.74 8.71c1.75 2 3.26 4.31 3.54 6.36s-.61 4.11-2.53 6.07a35.4 35.4 0 0 1-7 5.18 86.66 86.66 0 0 1-7.8 4.26c-1.61.79-3.21 1.49-4.79 2.16 1.8.76 3.61 1.5 5.44 2.18.37-.14.73-.26 1.09-.41a84.62 84.62 0 0 0 8.48-3.94 39.09 39.09 0 0 0 8.39-5.54 15.77 15.77 0 0 0 3.48-4.51 11.44 11.44 0 0 0 1.15-6.09c-.36-4.25-2.5-7.26-4.4-9.78Z" fill="#ffffff"/>
                <path d="M1245.32 1340.17c-7 9.61-14.57 18.69-21.2 24.21a84.64 84.64 0 0 1-8.25 6.22l-3.35 2a53.5 53.5 0 0 1-12.77 5.9 61.2 61.2 0 0 1-14.24 2.75 50.37 50.37 0 0 1-16.47-1.37 27.32 27.32 0 0 1-4.29-1.53c-1.2 1.29-2.39 2.59-3.53 3.93a31.3 31.3 0 0 0 6.21 2.8c12.3 4 25.2 2.71 34.33.21a66.31 66.31 0 0 0 10.77-4 36.19 36.19 0 0 0 3.86-2l3.67-2.35a84.9 84.9 0 0 0 8.81-7.23c7-6.34 14.36-16.25 20.92-26.36 2.06-3.19 4.08-6.38 6-9.48-2.12.17-4.25.4-6.37.68Z" fill="#ffffff"/>
                <path d="M1291.5 1594.31a64.33 64.33 0 0 1-9.57-1.33s-.94-.14-2.56-.47a41.1 41.1 0 0 1-6.51-1.89c-5.2-1.93-11.85-6-15.41-12.48s-4.15-14.58-4-20.52.71-10.09.15-10.2-2 3.74-3.13 9.9-1.7 15 2.07 23.27a30.54 30.54 0 0 0 7.93 10.45 40 40 0 0 0 9.57 6.11 47.28 47.28 0 0 0 7.52 2.68c1.85.5 2.91.71 2.91.71a67.79 67.79 0 0 0 10.67.85 195.12 195.12 0 0 0 22.73-1.44c7.17-.77 14.25-2 19.93-3.17q3.35-1.8 6.63-3.79c-6.14.36-16.53 1.3-27 1.54-7.96.21-16.09.23-21.93-.22Z" fill="#ffffff"/>
                <path d="M1232.7 1453.27a17.14 17.14 0 0 0-4.48-4.17 33.83 33.83 0 0 0-8-3.64 47.33 47.33 0 0 0-5.2-1.52c-1.21-.33-1.86-.44-1.86-.44l-1.89-.28a43.24 43.24 0 0 0-5.33-.59 86.5 86.5 0 0 0-18.77 1 234.59 234.59 0 0 0-25.25 5.61 281 281 0 0 1-28.23 6.44c-1.7.3-3.41.53-5.12.78-.21 1.78-.42 3.56-.57 5.35 2.16-.22 4.32-.45 6.48-.75a273.82 273.82 0 0 0 29-5.63 236.11 236.11 0 0 1 24.68-4.78 79.38 79.38 0 0 1 17.22-.46 38.52 38.52 0 0 1 4.69.62l1.65.28a16.24 16.24 0 0 1 1.63.35 38.42 38.42 0 0 1 4.52 1.21c3.79 1.16 9.78 3.24 10.29 8.12.37 2.6-.64 5.94-2.69 9a25.41 25.41 0 0 1-8.79 7.9c-7.52 4.36-17.13 6.58-26.83 8.92-19.32 4.71-38.64 9.49-53.1 13.22l-6.39 1.66c.18.84.38 1.67.56 2.5l6.48-1.24c14.67-2.83 34.18-6.81 53.68-10.85 9.65-2 19.82-3.88 28.71-8.64a31.9 31.9 0 0 0 11.26-9.65c2.77-3.94 4.63-8.68 4.16-13.58a13.5 13.5 0 0 0-2.51-6.74Z" fill="#ffffff"/>
                <path d="M1351.43 1383.34c-6.42 6.63-14.13 11.53-20.44 13.46a21.68 21.68 0 0 1-2.1.67 5.3 5.3 0 0 1-.75.12h-.07a.1.1 0 0 1 0-.13c0-.13 0 .09.11-.18 0 0 .27-1.07.73-2.94a30.18 30.18 0 0 1 1-3.35c.22-.64.46-1.32.7-2s.63-1.45 1-2.23c2.59-6.28 7.59-14.18 12.87-22.13 1.27-1.94 2.53-3.89 3.76-5.84-1.34-.94-2.71-1.84-4.08-2.73-1.34 1.8-2.72 3.61-4.12 5.42-5.82 7.53-11.58 15.47-14.85 22.29-.42.84-.82 1.65-1.19 2.42l-.93 2.28a34.38 34.38 0 0 0-1.38 3.77l-1 3.38s0 .1-.07.29-.14.7-.21 1.25a7.18 7.18 0 0 0 .76 4.46 6.76 6.76 0 0 0 5.82 3.37 11.26 11.26 0 0 0 2.16-.11 12.51 12.51 0 0 0 1.59-.34 28.62 28.62 0 0 0 2.75-1c7.28-2.68 15.7-8.87 22-16.45a102 102 0 0 0 9.81-14.11c-1-1-2-1.87-3-2.78a114.28 114.28 0 0 1-10.87 13.14Z" fill="#ffffff"/>
                <path d="M1205.58 1585a5.2 5.2 0 0 0-.47-.79 10.82 10.82 0 0 0-2.21-2.42 20 20 0 0 0-6.48-3.52 30.49 30.49 0 0 0-4.38-1.15c-1.45-.28-3-.55-4.58-.81-3.18-.49-6.59-.9-10-1.15-2.15-.18-4.29-.27-6.38-.31 2.15 2.05 4.38 4 6.64 5.89 2.92.55 5.81 1.16 8.5 1.83 1.49.37 2.92.75 4.28 1.13a24.57 24.57 0 0 1 3.39 1.19 12.81 12.81 0 0 1 4 2.52 3.45 3.45 0 0 1 .82 1 2.58 2.58 0 0 1 .49.86 3.47 3.47 0 0 1-.58 3 16.09 16.09 0 0 1-1.47 2.09q3 1.77 6.17 3.38a18.19 18.19 0 0 0 1.29-1.68 12.26 12.26 0 0 0 1.93-4.39 10.55 10.55 0 0 0 0-4.17 11.07 11.07 0 0 0-.96-2.5Z" fill="#ffffff"/>
                <path d="M1177.76 1467.36a7.06 7.06 0 0 0-4.9-3 14.2 14.2 0 0 0-5.87.49l-21.44 5.74c-6.37 1.75-12.7 3.53-18 5.11 0 1.17.08 2.33.13 3.5 5.56-.88 12.3-2.06 19-3.3l21.77-4.13a6.5 6.5 0 0 1 2.28-.22.12.12 0 0 1 0 .12c0 .07-.08 0-.08 0s.1-.09-.14.22a6.69 6.69 0 0 1-.66.77l-1.15 1a32.65 32.65 0 0 1-2.91 2.49 65.1 65.1 0 0 1-18.53 9.93 164.24 164.24 0 0 1-18.65 5.29c.14 1.1.26 2.21.43 3.31a119.41 119.41 0 0 0 19.85-3.42 67.12 67.12 0 0 0 21.09-9.4 37.68 37.68 0 0 0 3.53-2.64l1.45-1.19a15.48 15.48 0 0 0 1.34-1.36 11.92 11.92 0 0 0 1.23-1.69 10.48 10.48 0 0 0 .75-1.52 6.44 6.44 0 0 0 .39-1.34 5.09 5.09 0 0 0 .08-1.35 6.69 6.69 0 0 0-.99-3.41Z" fill="#ffffff"/>
                <path d="M1348 1418.2a123.5 123.5 0 0 1-23 19.84 76.94 76.94 0 0 1-23.76 10.5 63.5 63.5 0 0 1-18 1.93 47.09 47.09 0 0 1-6.78-.71 40.52 40.52 0 0 1-6.62-1.44 31.07 31.07 0 0 1-3.39-1.12 18.94 18.94 0 0 1-3.54-1.55 5.37 5.37 0 0 1-2.17-2 3.6 3.6 0 0 1 .09-2.88 28.59 28.59 0 0 1 2.49-4.88c1.06-1.76 2.21-3.56 3.49-5.35a116.67 116.67 0 0 1 8.76-10.88c6.51-7.28 14.27-14.57 21.71-22.25a282.05 282.05 0 0 0 20.84-23.6 138.39 138.39 0 0 0 14.75-23.27c.16-.31.29-.61.44-.91-.87-.46-1.72-.93-2.59-1.37l-.49.89a148 148 0 0 1-15.46 22 298 298 0 0 1-21.32 22.44c-7.59 7.35-15.57 14.4-22.57 21.78a121.76 121.76 0 0 0-9.55 11.24 88.02 88.02 0 0 0-3.92 5.7 34.6 34.6 0 0 0-3.26 6.13 10.81 10.81 0 0 0 0 8.25 12.27 12.27 0 0 0 4.91 5.28 24.66 24.66 0 0 0 4.68 2.24 40.6 40.6 0 0 0 3.89 1.39 47.84 47.84 0 0 0 7.61 1.82 54.49 54.49 0 0 0 7.76.64 70.34 70.34 0 0 0 20.06-2.6 83.39 83.39 0 0 0 25.51-12.06 127 127 0 0 0 23.52-21.51c10-11.58 18.38-24.13 25.67-35.09-.8-1-1.63-2-2.46-3-7.99 10.73-16.96 23.2-27.3 34.4Z" fill="#ffffff"/>
            </g>
            <path d="M1368.4 1377.67a211.7 211.7 0 0 1 14.64 15.91c29.77-2.55 46.12-3.19 50.66 8.32 9.81 24.84-57.59 74.72-150.53 111.41s-176.24 46.31-186.05 21.48c-4.53-11.49 8.31-21.92 31.7-40.33-.32-5-1.22-16.51-1.11-21.63-48.25 31.66-75.49 63-67.53 83.18 13.1 33.2 116.63 23.44 231.23-21.81s196.88-108.84 183.77-142c-7.99-20.27-49.59-24.52-106.78-14.53Z" fill="#eaa2ef"/>
            <path d="m2402.25 2342.21 2.84 41.91 73.39 20.14s135.12-122.21 198.66-155.56c103.1-54.13 239.24-27 239.24-27-68.26-46.09-140.94-61.16-140.94-61.16-13.3 19.46-373.19 181.67-373.19 181.67Z" fill="#d9831a"/>
            <path d="M1739 2265s187.07-27.21 217.69-5.1 121.31 11.91 121.31 11.91-116.71-64-161.86-82.35Z" fill="#d9831a"/>
            <path d="m2165.9 2259.07 70.56 244a519.32 519.32 0 0 0 71.06-21.69l-72.29-233c-23.62 3.73-46.68 7.27-69.33 10.69Z" fill="#ffd637"/>
            <path fill="#e702a9" d="m3280.76 1902.4 36.39-211.85-294.72 213.47 258.33-1.62z"/>
            <path fill="#740f94" d="m3280.76 1902.4 150.21 114.33-113.82-326.18-36.39 211.85z"/>
            <path fill="#ac099e" d="m3022.43 1904.02 151.75 80.39 256.79 32.32-150.21-114.33-258.33 1.62z"/>
            <path fill="#ac099e" d="m1169.98 896.81 167.04-129.37-81.6-155.72-85.44 285.09z"/>
            <path fill="#740f94" d="m1337.02 767.44 154.38-.33-235.98-155.39 81.6 155.72z"/>
            <path fill="#e702a9" d="m1169.98 896.81 138.52-23.15 182.9-106.55-154.38.33-167.04 129.37z"/>
            <path fill="#5f0087" d="m1918.34 2760 206.21-74.53 38.94-218.02-206.21 74.54-38.94 218.01z"/>
            <path fill="#b318ef" d="m1789.64 2400.68 167.64 141.31 206.21-74.54-167.62-141.46-206.23 74.69z"/>
            <path fill="#9618c7" d="M1750.69 2618.69 1918.34 2760l38.94-218.01-167.64-141.31-38.95 218.01z"/>
            <path fill="#e702a9" d="M2108.99 500.81v117.77h-92.89V500.81h92.89z"/>
            <path fill="#e702a9" d="M2170.42 554.03v87.91h-76.3v-87.91h76.3z"/>
            <path fill="#e702a9" d="M2231.99 448.7v64.32h-47.51V448.7h47.51z"/>
            <path fill="#c76eff" d="M3349.528 2109.728c8.627 13.957 4.305 32.266-9.652 40.892s-32.266 4.306-40.892-9.651-4.306-32.266 9.651-40.893 32.266-4.305 40.893 9.652z"/>
            <path fill="#c76eff" d="M1088.416 1401.791c7.82 18.88-1.145 40.523-20.025 48.343s-40.522-1.144-48.342-20.024 1.144-40.523 20.024-48.343 40.523 1.145 48.343 20.024z"/>
            <path fill="#c76eff" d="M1500.536 1495.567c3.328 14.099-5.405 28.226-19.503 31.554s-28.227-5.405-31.554-19.503 5.404-28.227 19.503-31.554 28.226 5.404 31.554 19.503z"/>
            <path d="M3239.67 2135.64a16 16 0 1 0 16 16 16 16 0 0 0-16-16Z" fill="#c76eff"/>
        </g>
    </g>
</svg>
